<?xml version="1.0" encoding="utf-8"?>
<!-- Generator: Adobe Illustrator 22.1.0, SVG Export Plug-In . SVG Version: 6.00 Build 0)  -->
<svg version="1.1" id="Layer_1" xmlns="http://www.w3.org/2000/svg" xmlns:xlink="http://www.w3.org/1999/xlink" x="0px" y="0px"
	 viewBox="0 0 1000 331" style="enable-background:new 0 0 1000 331;" xml:space="preserve">
<style type="text/css">
	.st0{fill:url(#SVGID_1_);}
	.st1{fill:#FFFFFF;}
	.st2{clip-path:url(#SVGID_3_);fill:none;stroke:#5B5B5B;stroke-width:1.0111;stroke-linecap:round;stroke-linejoin:round;}
	.st3{fill:none;}
</style>
<linearGradient id="SVGID_1_" gradientUnits="userSpaceOnUse" x1="60.9276" y1="180.7788" x2="934.1921" y2="102.5474" gradientTransform="matrix(1.1293 0 0 1.7193 -59.9224 -78.3297)">
	<stop  offset="0" style="stop-color:#1B007F"/>
	<stop  offset="1" style="stop-color:#0D0055"/>
</linearGradient>
<rect x="0" y="0" class="st0" width="1000" height="331"/>
<g>
	<path class="st1" d="M83.9,155.2c-0.8-0.3-1.4-0.6-2-0.9s-1.1-0.6-1.7-1.1s-1.5-1.1-2.7-2.1c-2.8-2.7-4.2-6-4.2-9.8v-0.2
		c0-0.4,0.1-0.7,0.4-1.1c0.3-0.4,0.6-0.7,1-0.9s0.9-0.4,1.3-0.4h5.8c0.7,0,1.3,0.2,1.7,0.7s0.7,1,0.7,1.7v0.4c0,0.7,0.1,1.3,0.4,1.9
		c0.3,0.6,0.7,1.2,1.3,1.8c0.6,0.4,1.2,0.7,1.9,0.9c0.7,0.2,1.4,0.3,2.2,0.3h0.3c1.1,0,2.1-0.1,3-0.4c0.9-0.3,1.6-0.7,2.1-1.2
		c0.5-0.5,0.8-1.2,0.8-1.9L96,129.9v-36c0-0.4,0.1-0.7,0.3-1.1c0.2-0.3,0.5-0.6,0.9-0.8c0.4-0.2,0.8-0.3,1.3-0.3h5.6
		c0.4,0,0.8,0.1,1.1,0.3c0.4,0.2,0.7,0.5,0.9,0.8c0.2,0.3,0.3,0.7,0.3,1.1v47.4c0,4.9-1.1,8.3-3.3,10.4c-1.5,1.3-3.2,2.4-5.1,3.2
		c-2,0.8-3.9,1.3-5.8,1.3c-2.3,0-4-0.1-5.1-0.2C86.1,155.9,85,155.6,83.9,155.2z"/>
	<path class="st1" d="M117.3,146.8c-1.6-2.7-2.3-5.7-2.3-8.8v-29.6c0-2.1,0.3-4.1,1-6c0.7-1.9,1.7-3.6,3-5.2s2.8-2.8,4.6-3.8
		c2.6-1.5,5.4-2.3,8.6-2.3h3c2.1,0,4,0.3,5.9,1c1.9,0.7,3.6,1.7,5.2,2.9c1.5,1.3,2.8,2.8,3.8,4.5c1.5,2.6,2.3,5.5,2.3,8.7l0.1,29.7
		c0,2.1-0.4,4-1.1,6s-1.7,3.7-3,5.3c-1.3,1.6-2.8,2.9-4.6,4c-2.6,1.6-5.5,2.4-8.6,2.4h-3c-2.1,0-4-0.4-5.9-1.1
		c-1.9-0.7-3.6-1.7-5.2-3.1C119.6,150.2,118.3,148.6,117.3,146.8z M133.7,145c1.3,0,2.4-0.3,3.5-1c1.1-0.7,1.9-1.6,2.6-2.7
		c0.6-1.1,0.9-2.3,0.9-3.6v-29.4c0-1.3-0.3-2.5-0.9-3.5c-0.6-1.1-1.5-1.9-2.6-2.5c-1.1-0.6-2.3-0.9-3.6-0.9h-0.3
		c-1.3,0-2.5,0.3-3.6,0.9c-1.1,0.6-2,1.4-2.6,2.5c-0.6,1.1-1,2.2-1,3.5v29.4c0,1.3,0.3,2.5,1,3.6c0.6,1.1,1.5,2,2.6,2.7
		c1.1,0.7,2.3,1,3.6,1H133.7z"/>
	<path class="st1" d="M161.5,152.7V94.5c0-0.7,0.2-1.3,0.7-1.7c0.4-0.5,1-0.7,1.7-0.7h6.7c0.4,0,0.8,0.1,1.1,0.3s0.6,0.5,0.8,0.9
		c0.2,0.4,0.3,0.8,0.3,1.2v58.2c0,0.4-0.1,0.9-0.3,1.2c-0.2,0.4-0.5,0.7-0.8,0.9s-0.7,0.3-1.1,0.3h-6.7c-0.7,0-1.2-0.2-1.7-0.7
		C161.8,154,161.5,153.4,161.5,152.7z"/>
	<path class="st1" d="M183.1,152.5V94.2c0-0.4,0.1-0.9,0.3-1.2c0.2-0.4,0.5-0.7,0.9-0.9c0.4-0.2,0.8-0.3,1.3-0.3h10.7
		c0.5,0,0.9,0.1,1.4,0.3c0.5,0.2,0.9,0.5,1.2,0.8c0.3,0.3,0.6,0.7,0.7,1.1l13.1,39.1l-0.9-38.9c0-0.7,0.2-1.3,0.7-1.7
		c0.4-0.5,1-0.7,1.7-0.7h6.8c0.4,0,0.7,0.1,1.1,0.3c0.4,0.2,0.7,0.4,0.9,0.7s0.4,0.5,0.4,0.8v58.2c0,0.9-0.2,1.7-0.7,2.2
		c-0.4,0.6-1,0.8-1.7,0.8h-9.3c-0.7,0-1.3-0.2-1.9-0.7c-0.6-0.5-1.1-1-1.3-1.6l-14.6-39.9l0.8,39.7c0,0.7-0.2,1.3-0.7,1.7
		s-1,0.7-1.7,0.7h-6.7c-0.4,0-0.9-0.1-1.3-0.3c-0.4-0.2-0.7-0.5-0.9-0.9S183.1,152.9,183.1,152.5z"/>
	<path class="st1" d="M246.3,146.8c-1.6-2.7-2.3-5.7-2.3-8.8v-29.6c0-2.1,0.3-4.1,1-6c0.7-1.9,1.7-3.6,3-5.2s2.8-2.8,4.6-3.8
		c2.6-1.5,5.4-2.3,8.6-2.3h3c2.1,0,4,0.3,5.9,1c1.9,0.7,3.6,1.7,5.2,2.9c1.5,1.3,2.8,2.8,3.8,4.5c1.5,2.6,2.3,5.5,2.3,8.7l0.1,29.7
		c0,2.1-0.4,4-1.1,6s-1.7,3.7-3,5.3c-1.3,1.6-2.8,2.9-4.6,4c-2.6,1.6-5.5,2.4-8.6,2.4h-3c-2.1,0-4-0.4-5.9-1.1
		c-1.9-0.7-3.6-1.7-5.2-3.1C248.7,150.2,247.4,148.6,246.3,146.8z M262.8,145c1.3,0,2.4-0.3,3.5-1c1.1-0.7,1.9-1.6,2.6-2.7
		c0.6-1.1,0.9-2.3,0.9-3.6v-29.4c0-1.3-0.3-2.5-0.9-3.5c-0.6-1.1-1.5-1.9-2.6-2.5c-1.1-0.6-2.3-0.9-3.6-0.9h-0.3
		c-1.3,0-2.5,0.3-3.6,0.9c-1.1,0.6-2,1.4-2.6,2.5c-0.6,1.1-1,2.2-1,3.5v29.4c0,1.3,0.3,2.5,1,3.6c0.6,1.1,1.5,2,2.6,2.7
		c1.1,0.7,2.3,1,3.6,1H262.8z"/>
	<path class="st1" d="M291.8,146.3c-1.6-2.7-2.4-5.6-2.4-8.8L289.3,96c0-1.1,0.2-1.9,0.5-2.5s0.8-1,1.3-1.2c0.6-0.2,1.3-0.4,2.3-0.4
		h3.2c0.9,0,1.5,0,1.8,0c0.3,0,0.6,0.1,0.7,0.1s0.4,0.2,0.7,0.5c0.3,0.2,0.5,0.6,0.7,1.2s0.2,1.3,0.2,2.2l0.1,41
		c0,1.3,0.3,2.5,1,3.7c0.6,1.1,1.5,2,2.6,2.7c1.1,0.7,2.3,1,3.5,1h1.4c1.3,0,2.5-0.3,3.6-1c1.1-0.7,1.9-1.6,2.6-2.7s1-2.4,1-3.7
		l0.1-41c0-1,0.2-1.9,0.5-2.4c0.3-0.6,0.7-1,1.3-1.2c0.6-0.2,1.3-0.3,2.2-0.3h3.5c1,0,1.9,0.1,2.4,0.3c0.6,0.2,1,0.6,1.3,1.2
		c0.3,0.6,0.4,1.4,0.4,2.5l-0.1,41.5c0,2.1-0.4,4.1-1.1,6c-0.7,1.9-1.8,3.7-3.1,5.2c-1.3,1.6-2.9,2.9-4.7,3.9
		c-2.7,1.6-5.6,2.4-8.8,2.4h-3.2c-2.1,0-4.2-0.4-6.1-1.1c-1.9-0.7-3.7-1.7-5.3-3.1S292.8,148.1,291.8,146.3z"/>
	<path class="st1" d="M335.5,152.9V94.7c0-0.4,0.1-0.9,0.3-1.3c0.2-0.4,0.5-0.7,0.9-0.9c0.4-0.2,0.8-0.3,1.3-0.3h17.6
		c2.7,0,5.1,0.6,7.2,1.7c2.1,1.1,3.7,2.6,4.9,4.5c1.2,1.9,1.7,4.1,1.7,6.5v11c0,1.4-0.3,2.8-0.8,4.2c-0.6,1.4-1.3,2.6-2.3,3.7
		s-2.2,2-3.5,2.7l0.1,0.2l9,26.5c0.1,0.1,0.1,0.3,0.1,0.6c0,0.4-0.2,0.7-0.5,1c-0.3,0.3-0.7,0.4-1.2,0.4h-7.8
		c-0.4,0-0.8-0.1-1.2-0.3c-0.4-0.2-0.8-0.4-1.1-0.7c-0.3-0.3-0.5-0.6-0.6-0.9l-7.3-22.5c-0.8-0.4-1.5-0.6-2.3-0.6
		c-1,0-1.8,0.4-2.4,1.1v22c0,0.6-0.2,1.1-0.7,1.5c-0.5,0.4-1,0.6-1.7,0.6h-7.2c-0.7,0-1.3-0.2-1.8-0.6
		C335.8,154,335.5,153.5,335.5,152.9z M353,119c0.9,0,1.8-0.2,2.5-0.6c0.8-0.4,1.4-1,1.8-1.7c0.5-0.7,0.7-1.5,0.7-2.4V106
		c0-0.9-0.2-1.7-0.7-2.5c-0.5-0.8-1.1-1.4-1.8-1.8c-0.8-0.4-1.6-0.7-2.5-0.7h-5c-0.3,0-0.6,0.1-0.8,0.4c-0.2,0.3-0.4,0.5-0.4,0.9
		v15.1c0,0.4,0.2,0.8,0.5,1.1s0.7,0.5,1.1,0.5H353z"/>
	<path class="st1" d="M393,152.5V95c0-0.5,0.1-1,0.4-1.4c0.3-0.4,0.6-0.8,1-1.1c0.4-0.3,0.9-0.4,1.3-0.4h18.1c2,0,3.9,0.3,5.8,1
		c1.8,0.7,3.5,1.6,5,2.8c1.5,1.2,2.7,2.7,3.7,4.4c1.4,2.6,2.2,5.4,2.2,8.5l0.1,28.8c0,2-0.3,4-1,5.9c-0.6,1.9-1.6,3.7-2.8,5.2
		c-1.2,1.6-2.6,2.9-4.3,4c-2.5,1.6-5.3,2.4-8.3,2.4h-10.1c0,0-0.1,0.1-0.1,0.1s-0.1,0-0.2,0h-8.4c-0.4,0-0.9-0.1-1.2-0.4
		c-0.4-0.2-0.7-0.6-0.9-1S393,153.1,393,152.5z M411.5,144.4c1.3,0,2.6-0.3,3.7-1c1.2-0.7,2.1-1.6,2.8-2.8c0.7-1.2,1-2.4,1-3.7
		v-27.5c0-1.2-0.3-2.3-0.9-3.4c-0.6-1-1.4-1.9-2.5-2.5c-1-0.6-2.2-0.9-3.4-0.9h-7.6c-0.4,0-0.7,0.1-0.9,0.4s-0.4,0.5-0.4,0.9v39.8
		c0,0.2,0.1,0.4,0.2,0.5c0.1,0.1,0.3,0.2,0.5,0.2H411.5z"/>
	<path class="st1" d="M439.6,152.7V94.5c0-0.7,0.2-1.3,0.7-1.7c0.4-0.5,1-0.7,1.7-0.7h6.7c0.4,0,0.8,0.1,1.1,0.3s0.6,0.5,0.8,0.9
		c0.2,0.4,0.3,0.8,0.3,1.2v58.2c0,0.4-0.1,0.9-0.3,1.2c-0.2,0.4-0.5,0.7-0.8,0.9s-0.7,0.3-1.1,0.3h-6.7c-0.7,0-1.2-0.2-1.7-0.7
		C439.8,154,439.6,153.4,439.6,152.7z"/>
	<path class="st1" d="M463.2,150.8c-1.5-1.6-2.7-3.5-3.5-5.7c-0.8-2.1-1.3-4.3-1.3-6.6v-0.1c0-0.6,0.1-1.1,0.4-1.5
		c0.3-0.5,0.6-0.8,1.1-1.1c0.4-0.3,0.9-0.4,1.4-0.4h6.4c0,0,0.1,0.1,0.1,0.1c0.1,0,0.1,0,0.2,0h0.2c0.5,0.2,1,0.6,1.4,1.1
		c0.4,0.5,0.5,1,0.5,1.5v0.9c0,0.9,0.2,1.8,0.6,2.6c0.4,0.8,0.9,1.5,1.6,2.1s1.4,1,2.3,1.2c0.6,0.2,1.3,0.3,1.9,0.3h0.3
		c0.2,0,0.4,0,0.5,0s0.2,0,0.3-0.1h0.1c1.1-0.1,2.1-0.4,3-1c0.9-0.6,1.6-1.3,2.1-2.2c0.5-0.9,0.8-1.9,0.8-3l0.2-4.5
		c0-1.6-0.4-2.9-1-3.9c-0.6-1-1.5-1.9-2.8-2.5c-1.4-0.8-3.7-1.3-6.7-1.3l-1.7-0.2c-3.5-0.3-6.1-1.3-7.9-3c-1.8-1.7-3-3.8-3.5-6.1
		c-0.5-2.3-0.8-4.9-0.8-7.7l0.1-3.2l0.1-1.3c0.3-2,0.6-3.5,0.9-4.6c0.3-1.1,0.6-2,1.1-2.9s1.2-1.7,2.1-2.6c1.4-1.4,3.1-2.5,5.1-3.2
		c2-0.7,4.1-1.1,6.5-1h2.8c2.1,0,4.1,0.4,6,1.2c1.9,0.8,3.6,2,5.1,3.5c1.5,1.5,2.6,3.2,3.4,5.2c0.8,2,1.2,4.1,1.2,6.4v0.1
		c0,0.5-0.1,1-0.4,1.4s-0.5,0.7-0.9,1c-0.4,0.2-0.8,0.4-1.3,0.4h-6.2c-0.7,0-1.2-0.3-1.7-0.8c-0.4-0.5-0.7-1.1-0.7-1.7v-0.6
		c0-0.9-0.2-1.7-0.6-2.4c-0.4-0.8-0.9-1.4-1.6-2c-0.7-0.6-1.4-1-2.3-1.2c-0.5-0.2-1.1-0.3-1.8-0.3h-0.7c-0.1,0.1-0.2,0.1-0.4,0.1
		c-1.1,0.1-2.1,0.4-2.9,1s-1.5,1.2-2,2.1c-0.5,0.8-0.7,1.8-0.7,2.8v5.2c0.1,1.2,0.5,2.1,1.2,2.8c0.7,0.7,1.6,1.2,2.9,1.5
		c1.3,0.3,3,0.5,5.1,0.6c5.3,0.4,9.3,2,11.9,4.9c2.6,2.9,3.9,7.2,3.9,12.7c0,1.6-0.1,3.1-0.2,4.5s-0.5,3-1,4.6
		c-0.5,1.6-1.2,3.1-2.2,4.5c-1.6,2.3-3.6,4.1-5.9,5.4c-2.4,1.3-4.9,2-7.6,2h-2.8c-2.2,0-4.3-0.4-6.3-1.3S464.8,152.5,463.2,150.8z"
		/>
	<path class="st1" d="M504.5,146.8c-1.5-2.7-2.3-5.6-2.3-8.8v-29.8c0-2.1,0.3-4,1-5.9s1.6-3.6,2.9-5.1c1.2-1.5,2.7-2.8,4.4-3.8
		c2.5-1.5,5.2-2.3,8.3-2.3h2.9c2,0,3.9,0.3,5.8,1c1.8,0.7,3.5,1.7,5,2.9c1.5,1.3,2.7,2.8,3.7,4.5c1.4,2.6,2.2,5.5,2.2,8.6v0.1
		c0,0.5-0.1,0.9-0.3,1.4c-0.2,0.4-0.5,0.8-0.9,1c-0.4,0.3-0.8,0.4-1.3,0.4h-6.1c-0.5,0-0.9-0.1-1.3-0.4s-0.7-0.6-1-1
		c-0.3-0.4-0.4-0.9-0.4-1.4V108c0-1.3-0.3-2.5-0.9-3.6c-0.6-1.1-1.4-1.9-2.4-2.5c-1-0.6-2.2-0.9-3.5-0.9h-0.4
		c-1.2,0-2.4,0.3-3.4,0.9s-1.9,1.5-2.6,2.5c-0.6,1.1-0.9,2.3-0.9,3.5v29.4c0,1.3,0.3,2.5,1,3.6c0.6,1.1,1.5,2,2.6,2.7s2.2,1,3.4,1
		h0.4c1.3,0,2.4-0.3,3.5-1s1.9-1.6,2.5-2.7c0.6-1.1,0.9-2.4,0.9-3.7c0-0.5,0.1-0.9,0.4-1.4s0.6-0.7,1-1c0.4-0.2,0.9-0.4,1.3-0.4h6.1
		c0.5,0,0.9,0.1,1.3,0.4c0.4,0.2,0.7,0.6,0.9,1c0.2,0.4,0.4,0.9,0.4,1.4v0.5c0,2.1-0.3,4.1-1,6.1c-0.7,1.9-1.6,3.7-2.8,5.2
		c-1.2,1.6-2.7,2.9-4.4,3.9c-2.6,1.6-5.4,2.4-8.5,2.4h-2.9c-2,0-3.9-0.4-5.8-1.1s-3.5-1.7-5-3.1
		C506.6,150.2,505.4,148.6,504.5,146.8z"/>
	<path class="st1" d="M547.6,146.8c-1.6-2.7-2.3-5.7-2.3-8.8v-29.6c0-2.1,0.3-4.1,1-6c0.7-1.9,1.7-3.6,3-5.2
		c1.3-1.5,2.8-2.8,4.6-3.8c2.6-1.5,5.4-2.3,8.6-2.3h3c2.1,0,4,0.3,5.9,1c1.9,0.7,3.6,1.7,5.2,2.9c1.5,1.3,2.8,2.8,3.8,4.5
		c1.5,2.6,2.3,5.5,2.3,8.7l0.1,29.7c0,2.1-0.4,4-1.1,6s-1.7,3.7-3,5.3c-1.3,1.6-2.8,2.9-4.6,4c-2.6,1.6-5.5,2.4-8.6,2.4h-3
		c-2.1,0-4-0.4-5.9-1.1s-3.6-1.7-5.2-3.1C549.9,150.2,548.6,148.6,547.6,146.8z M564.1,145c1.3,0,2.4-0.3,3.5-1
		c1.1-0.7,1.9-1.6,2.6-2.7c0.6-1.1,0.9-2.3,0.9-3.6v-29.4c0-1.3-0.3-2.5-0.9-3.5c-0.6-1.1-1.5-1.9-2.6-2.5c-1.1-0.6-2.3-0.9-3.6-0.9
		h-0.3c-1.3,0-2.5,0.3-3.6,0.9c-1.1,0.6-2,1.4-2.6,2.5c-0.6,1.1-1,2.2-1,3.5v29.4c0,1.3,0.3,2.5,1,3.6c0.6,1.1,1.5,2,2.6,2.7
		c1.1,0.7,2.3,1,3.6,1H564.1z"/>
	<path class="st1" d="M590.7,152.9V94.7c0-0.4,0.1-0.9,0.3-1.3c0.2-0.4,0.5-0.7,0.9-0.9c0.4-0.2,0.8-0.3,1.3-0.3h17.6
		c2.7,0,5.1,0.6,7.2,1.7c2.1,1.1,3.7,2.6,4.9,4.5s1.7,4.1,1.7,6.5v11c0,1.4-0.3,2.8-0.8,4.2c-0.6,1.4-1.3,2.6-2.3,3.7
		c-1,1.1-2.2,2-3.5,2.7l0.1,0.2l9,26.5c0.1,0.1,0.1,0.3,0.1,0.6c0,0.4-0.2,0.7-0.5,1s-0.7,0.4-1.2,0.4h-7.8c-0.4,0-0.8-0.1-1.2-0.3
		c-0.4-0.2-0.8-0.4-1.1-0.7c-0.3-0.3-0.5-0.6-0.6-0.9l-7.3-22.5c-0.8-0.4-1.5-0.6-2.3-0.6c-1,0-1.8,0.4-2.4,1.1v22
		c0,0.6-0.2,1.1-0.7,1.5c-0.5,0.4-1,0.6-1.7,0.6h-7.2c-0.7,0-1.3-0.2-1.8-0.6C590.9,154,590.7,153.5,590.7,152.9z M608.2,119
		c0.9,0,1.8-0.2,2.5-0.6c0.8-0.4,1.4-1,1.8-1.7c0.5-0.7,0.7-1.5,0.7-2.4V106c0-0.9-0.2-1.7-0.7-2.5c-0.4-0.8-1.1-1.4-1.8-1.8
		c-0.8-0.4-1.6-0.7-2.5-0.7h-5c-0.3,0-0.6,0.1-0.8,0.4c-0.2,0.3-0.4,0.5-0.4,0.9v15.1c0,0.4,0.2,0.8,0.5,1.1s0.7,0.5,1.1,0.5H608.2z
		"/>
	<path class="st1" d="M634.6,152.5V95c0-0.5,0.1-1,0.4-1.4c0.3-0.4,0.6-0.8,1-1.1c0.4-0.3,0.9-0.4,1.3-0.4h18.1c2,0,3.9,0.3,5.8,1
		c1.8,0.7,3.5,1.6,5,2.8c1.5,1.2,2.7,2.7,3.7,4.4c1.4,2.6,2.2,5.4,2.2,8.5l0.1,28.8c0,2-0.3,4-1,5.9c-0.6,1.9-1.6,3.7-2.8,5.2
		s-2.6,2.9-4.3,4c-2.5,1.6-5.3,2.4-8.3,2.4h-10.1c0,0-0.1,0.1-0.1,0.1c-0.1,0-0.1,0-0.2,0h-8.4c-0.4,0-0.9-0.1-1.2-0.4
		s-0.7-0.6-0.9-1S634.6,153.1,634.6,152.5z M653.2,144.4c1.3,0,2.6-0.3,3.7-1c1.2-0.7,2.1-1.6,2.8-2.8c0.7-1.2,1-2.4,1-3.7v-27.5
		c0-1.2-0.3-2.3-0.9-3.4s-1.4-1.9-2.5-2.5c-1-0.6-2.2-0.9-3.4-0.9h-7.6c-0.4,0-0.7,0.1-0.9,0.4c-0.3,0.3-0.4,0.5-0.4,0.9v39.8
		c0,0.2,0.1,0.4,0.2,0.5s0.3,0.2,0.5,0.2H653.2z"/>
	<path class="st1" d="M74.7,190.5c-0.8-1.4-1.2-3-1.2-4.8v-16.1c0-1.1,0.2-2.2,0.5-3.2s0.9-1.9,1.6-2.8c0.7-0.8,1.5-1.5,2.4-2.1
		c1.3-0.8,2.8-1.2,4.5-1.2H84c1.1,0,2.1,0.2,3.1,0.6c1,0.4,1.9,0.9,2.7,1.6c0.8,0.7,1.5,1.5,2,2.4c0.8,1.4,1.2,3,1.2,4.7v0
		c0,0.3,0,0.5-0.2,0.7c-0.1,0.2-0.3,0.4-0.5,0.6c-0.2,0.1-0.4,0.2-0.7,0.2h-3.3c-0.3,0-0.5-0.1-0.7-0.2c-0.2-0.1-0.4-0.3-0.5-0.6
		c-0.1-0.2-0.2-0.5-0.2-0.7v-0.1c0-0.7-0.2-1.4-0.5-1.9c-0.3-0.6-0.8-1-1.3-1.3c-0.6-0.3-1.2-0.5-1.9-0.5h-0.2
		c-0.7,0-1.3,0.2-1.9,0.5c-0.6,0.3-1,0.8-1.4,1.4c-0.3,0.6-0.5,1.2-0.5,1.9v15.9c0,0.7,0.2,1.4,0.5,2c0.4,0.6,0.8,1.1,1.4,1.5
		c0.6,0.4,1.2,0.6,1.8,0.6h0.2c0.7,0,1.3-0.2,1.9-0.5c0.6-0.4,1-0.8,1.3-1.5c0.3-0.6,0.5-1.3,0.5-2c0-0.3,0.1-0.5,0.2-0.7
		c0.1-0.2,0.3-0.4,0.5-0.5c0.2-0.1,0.5-0.2,0.7-0.2h3.3c0.3,0,0.5,0.1,0.7,0.2s0.4,0.3,0.5,0.5c0.1,0.2,0.2,0.5,0.2,0.7v0.2
		c0,1.1-0.2,2.2-0.5,3.3c-0.4,1-0.9,2-1.5,2.8c-0.7,0.8-1.5,1.6-2.4,2.1c-1.4,0.9-2.9,1.3-4.6,1.3h-1.6c-1.1,0-2.1-0.2-3.1-0.6
		c-1-0.4-1.9-0.9-2.7-1.7C75.8,192.4,75.2,191.5,74.7,190.5z"/>
	<path class="st1" d="M97,193.7v-31.5c0-0.2,0.1-0.4,0.2-0.6s0.3-0.4,0.5-0.5c0.2-0.1,0.4-0.2,0.6-0.2h3.6c0.4,0,0.7,0.1,0.9,0.4
		c0.3,0.2,0.4,0.5,0.4,0.9v12l9.2,0v-12c0-0.2,0.1-0.4,0.2-0.6c0.1-0.2,0.3-0.4,0.5-0.5s0.4-0.2,0.7-0.2h3.5c0.2,0,0.5,0.1,0.7,0.2
		c0.2,0.1,0.4,0.3,0.5,0.5c0.1,0.2,0.2,0.4,0.2,0.6v31.5c0,0.2-0.1,0.5-0.2,0.7c-0.1,0.2-0.3,0.4-0.5,0.5s-0.4,0.2-0.7,0.2h-3.5
		c-0.2,0-0.5-0.1-0.7-0.2s-0.4-0.3-0.5-0.5s-0.2-0.4-0.2-0.7v-13.6l-9.2,0v13.5c0,0.2-0.1,0.5-0.2,0.7c-0.1,0.2-0.3,0.4-0.5,0.5
		c-0.2,0.1-0.4,0.2-0.7,0.2h-3.6c-0.2,0-0.4-0.1-0.6-0.2c-0.2-0.1-0.4-0.3-0.5-0.5C97.1,194.1,97,193.9,97,193.7z"/>
	<path class="st1" d="M120.9,194c0-0.1,0-0.2,0-0.2l6.4-31.6c0.1-0.4,0.3-0.7,0.6-0.9c0.3-0.2,0.7-0.4,1.1-0.4h6.1
		c0.3,0,0.5,0.1,0.8,0.2c0.3,0.1,0.5,0.3,0.7,0.5c0.2,0.2,0.3,0.4,0.3,0.6l6.4,31.6c0,0.1,0,0.1,0,0.2c0,0.3-0.1,0.6-0.3,0.7
		c-0.2,0.2-0.5,0.3-0.9,0.3h-4.1c-0.7,0-1.2-0.4-1.3-1.1l-1.5-7.9h-6.3l-1.5,7.9c-0.1,0.4-0.2,0.7-0.4,0.8c-0.2,0.2-0.5,0.2-0.9,0.2
		h-4.1c-0.4,0-0.7-0.1-0.9-0.3C121,194.5,120.9,194.3,120.9,194z M134.5,180.3l-2.1-12.2c0-0.1-0.1-0.1-0.1-0.2c0,0-0.1-0.1-0.2-0.1
		s-0.1,0-0.2,0.1c0,0-0.1,0.1-0.1,0.2l-2,12.2H134.5z"/>
	<path class="st1" d="M149.8,193.7v-27.3h-3.9c-0.4,0-0.8-0.1-1-0.3c-0.3-0.2-0.4-0.5-0.4-0.9V162c0-0.4,0.1-0.6,0.4-0.9
		s0.6-0.3,1-0.3h14.2c0.3,0,0.5,0.1,0.7,0.2s0.4,0.3,0.5,0.4c0.1,0.2,0.2,0.4,0.2,0.6v3.3c0,0.2-0.1,0.4-0.2,0.6s-0.3,0.3-0.5,0.4
		c-0.2,0.1-0.5,0.2-0.7,0.2H156v27.3c0,0.4-0.1,0.7-0.4,0.9c-0.2,0.3-0.5,0.4-0.9,0.4h-3.6c-0.2,0-0.4-0.1-0.6-0.2
		c-0.2-0.1-0.4-0.3-0.5-0.5S149.8,193.9,149.8,193.7z"/>
	<path class="st1" d="M176.1,193.8l-5.8-31.7c0,0,0-0.1,0-0.2c0-0.3,0.1-0.5,0.3-0.7s0.5-0.3,0.8-0.3h3.5c0.4,0,0.7,0.1,1,0.4
		c0.3,0.2,0.5,0.5,0.5,0.9l3.2,19.5c0,0.1,0.1,0.1,0.1,0.2c0,0,0.1,0,0.2,0c0.1,0,0.1,0,0.2,0c0,0,0.1-0.1,0.1-0.2l2.6-19.5
		c0-0.2,0.1-0.5,0.3-0.7c0.2-0.2,0.3-0.4,0.6-0.5s0.4-0.2,0.6-0.2h3.9c0.2,0,0.4,0.1,0.6,0.2s0.4,0.3,0.6,0.5s0.3,0.4,0.3,0.6
		l3.3,19.9c0,0.1,0.1,0.2,0.2,0.2c0,0,0.1,0,0.1,0c0,0,0.1-0.1,0.1-0.1l2.7-19.8c0.1-0.4,0.3-0.7,0.5-0.9c0.3-0.3,0.6-0.4,1-0.4h3.5
		c0.2,0,0.4,0.1,0.6,0.2s0.3,0.2,0.4,0.4c0.1,0.2,0.2,0.3,0.1,0.4l-5,31.5c-0.1,0.5-0.3,0.9-0.5,1.2c-0.3,0.3-0.6,0.4-1,0.4h-4.9
		c-0.4,0-0.7-0.1-1-0.4c-0.3-0.2-0.5-0.5-0.5-0.9l-2.8-15.6l-2.4,15.3c-0.1,0.5-0.3,0.9-0.6,1.2c-0.3,0.3-0.6,0.4-1,0.4h-4.8
		c-0.2,0-0.5-0.1-0.7-0.2c-0.2-0.1-0.4-0.3-0.6-0.5S176.1,194,176.1,193.8z"/>
	<path class="st1" d="M206.3,193.8v-31.5c0-0.4,0.1-0.7,0.4-0.9c0.2-0.3,0.5-0.4,0.9-0.4h3.6c0.2,0,0.4,0.1,0.6,0.2
		c0.2,0.1,0.3,0.3,0.5,0.5s0.2,0.4,0.2,0.7v31.5c0,0.2-0.1,0.5-0.2,0.7s-0.3,0.4-0.5,0.5c-0.2,0.1-0.4,0.2-0.6,0.2h-3.6
		c-0.4,0-0.7-0.1-0.9-0.4C206.4,194.4,206.3,194.1,206.3,193.8z"/>
	<path class="st1" d="M221.4,193.7v-27.3h-3.9c-0.4,0-0.8-0.1-1-0.3c-0.3-0.2-0.4-0.5-0.4-0.9V162c0-0.4,0.1-0.6,0.4-0.9
		s0.6-0.3,1-0.3h14.2c0.3,0,0.5,0.1,0.7,0.2s0.4,0.3,0.5,0.4c0.1,0.2,0.2,0.4,0.2,0.6v3.3c0,0.2-0.1,0.4-0.2,0.6s-0.3,0.3-0.5,0.4
		c-0.2,0.1-0.5,0.2-0.7,0.2h-4.1v27.3c0,0.4-0.1,0.7-0.4,0.9c-0.2,0.3-0.5,0.4-0.9,0.4h-3.6c-0.2,0-0.4-0.1-0.6-0.2
		c-0.2-0.1-0.4-0.3-0.5-0.5S221.4,193.9,221.4,193.7z"/>
	<path class="st1" d="M236.1,193.7v-31.5c0-0.2,0.1-0.4,0.2-0.6s0.3-0.4,0.5-0.5c0.2-0.1,0.4-0.2,0.6-0.2h3.6c0.4,0,0.7,0.1,0.9,0.4
		c0.3,0.2,0.4,0.5,0.4,0.9v12l9.2,0v-12c0-0.2,0.1-0.4,0.2-0.6c0.1-0.2,0.3-0.4,0.5-0.5s0.4-0.2,0.7-0.2h3.5c0.2,0,0.5,0.1,0.7,0.2
		c0.2,0.1,0.4,0.3,0.5,0.5c0.1,0.2,0.2,0.4,0.2,0.6v31.5c0,0.2-0.1,0.5-0.2,0.7c-0.1,0.2-0.3,0.4-0.5,0.5s-0.4,0.2-0.7,0.2h-3.5
		c-0.2,0-0.5-0.1-0.7-0.2s-0.4-0.3-0.5-0.5s-0.2-0.4-0.2-0.7v-13.6l-9.2,0v13.5c0,0.2-0.1,0.5-0.2,0.7c-0.1,0.2-0.3,0.4-0.5,0.5
		c-0.2,0.1-0.4,0.2-0.7,0.2h-3.6c-0.2,0-0.4-0.1-0.6-0.2c-0.2-0.1-0.4-0.3-0.5-0.5C236.1,194.1,236.1,193.9,236.1,193.7z"/>
	<path class="st1" d="M270.1,190.5c-0.8-1.5-1.3-3.1-1.3-4.8v-16c0-1.1,0.2-2.2,0.6-3.3s0.9-2,1.6-2.8c0.7-0.8,1.5-1.5,2.5-2.1
		c1.4-0.8,2.9-1.2,4.7-1.2h1.6c1.1,0,2.2,0.2,3.2,0.6c1,0.4,2,0.9,2.8,1.6c0.8,0.7,1.5,1.5,2.1,2.4c0.8,1.4,1.2,3,1.2,4.7l0,16.1
		c0,1.1-0.2,2.2-0.6,3.2s-0.9,2-1.6,2.8c-0.7,0.9-1.5,1.6-2.5,2.2c-1.4,0.9-3,1.3-4.6,1.3h-1.6c-1.1,0-2.2-0.2-3.2-0.6
		c-1-0.4-2-0.9-2.8-1.7C271.4,192.4,270.7,191.5,270.1,190.5z M279.1,189.6c0.7,0,1.3-0.2,1.9-0.6s1-0.9,1.4-1.5s0.5-1.3,0.5-2
		v-15.9c0-0.7-0.2-1.3-0.5-1.9s-0.8-1-1.4-1.4s-1.2-0.5-1.9-0.5h-0.1c-0.7,0-1.4,0.2-2,0.5s-1.1,0.8-1.4,1.4s-0.5,1.2-0.5,1.9v15.9
		c0,0.7,0.2,1.4,0.5,2s0.8,1.1,1.4,1.5c0.6,0.4,1.2,0.6,1.9,0.6H279.1z"/>
	<path class="st1" d="M294.8,190.3c-0.9-1.5-1.3-3.1-1.3-4.8l0-22.5c0-0.6,0.1-1,0.2-1.3c0.2-0.3,0.4-0.5,0.7-0.7
		c0.3-0.1,0.7-0.2,1.2-0.2h1.8c0.5,0,0.8,0,1,0c0.2,0,0.3,0,0.4,0.1s0.2,0.1,0.4,0.2c0.2,0.1,0.3,0.3,0.4,0.6
		c0.1,0.3,0.1,0.7,0.1,1.2l0,22.2c0,0.7,0.2,1.4,0.5,2s0.8,1.1,1.4,1.5c0.6,0.4,1.2,0.5,1.9,0.5h0.8c0.7,0,1.3-0.2,1.9-0.5
		c0.6-0.4,1.1-0.8,1.4-1.5c0.3-0.6,0.5-1.3,0.5-2l0-22.2c0-0.6,0.1-1,0.2-1.3c0.2-0.3,0.4-0.5,0.7-0.6c0.3-0.1,0.7-0.2,1.2-0.2h1.9
		c0.6,0,1,0.1,1.3,0.2c0.3,0.1,0.5,0.3,0.7,0.6c0.1,0.3,0.2,0.8,0.2,1.4l0,22.5c0,1.1-0.2,2.2-0.6,3.3s-1,2-1.7,2.8
		c-0.7,0.8-1.6,1.6-2.5,2.1c-1.5,0.9-3.1,1.3-4.8,1.3H303c-1.2,0-2.3-0.2-3.3-0.6s-2-0.9-2.9-1.7C296,192.1,295.3,191.3,294.8,190.3
		z"/>
	<path class="st1" d="M318.5,193.9v-31.5c0-0.2,0.1-0.5,0.2-0.7s0.3-0.4,0.5-0.5c0.2-0.1,0.4-0.2,0.7-0.2h9.6c1.5,0,2.8,0.3,3.9,0.9
		c1.1,0.6,2,1.4,2.6,2.4c0.6,1,0.9,2.2,0.9,3.5v5.9c0,0.8-0.2,1.5-0.5,2.3c-0.3,0.7-0.7,1.4-1.3,2c-0.5,0.6-1.2,1.1-1.9,1.5l0,0.1
		l4.9,14.3c0,0,0,0.1,0,0.3c0,0.2-0.1,0.4-0.3,0.5c-0.2,0.1-0.4,0.2-0.7,0.2h-4.2c-0.2,0-0.4-0.1-0.6-0.2c-0.2-0.1-0.4-0.2-0.6-0.4
		c-0.2-0.2-0.3-0.3-0.4-0.5l-3.9-12.2c-0.4-0.2-0.8-0.3-1.2-0.3c-0.5,0-1,0.2-1.3,0.6v11.9c0,0.3-0.1,0.6-0.4,0.8
		c-0.3,0.2-0.6,0.3-0.9,0.3h-3.9c-0.4,0-0.7-0.1-1-0.3C318.6,194.4,318.5,194.2,318.5,193.9z M327.9,175.5c0.5,0,1-0.1,1.4-0.4
		c0.4-0.2,0.8-0.5,1-0.9s0.4-0.8,0.4-1.3v-4.4c0-0.5-0.1-0.9-0.4-1.4s-0.6-0.7-1-1c-0.4-0.2-0.9-0.4-1.4-0.4h-2.7
		c-0.2,0-0.3,0.1-0.4,0.2c-0.1,0.1-0.2,0.3-0.2,0.5v8.2c0,0.2,0.1,0.4,0.2,0.6c0.2,0.2,0.4,0.2,0.6,0.2H327.9z"/>
	<path class="st1" d="M350.8,190.5c-0.8-1.4-1.2-3-1.2-4.8v-16.1c0-1.1,0.2-2.2,0.5-3.2s0.9-1.9,1.6-2.8c0.7-0.8,1.5-1.5,2.4-2.1
		c1.3-0.8,2.8-1.2,4.5-1.2h1.6c1.1,0,2.1,0.2,3.1,0.6c1,0.4,1.9,0.9,2.7,1.6c0.8,0.7,1.5,1.5,2,2.4c0.8,1.4,1.2,3,1.2,4.7v0
		c0,0.3,0,0.5-0.2,0.7c-0.1,0.2-0.3,0.4-0.5,0.6c-0.2,0.1-0.4,0.2-0.7,0.2h-3.3c-0.3,0-0.5-0.1-0.7-0.2c-0.2-0.1-0.4-0.3-0.5-0.6
		c-0.1-0.2-0.2-0.5-0.2-0.7v-0.1c0-0.7-0.2-1.4-0.5-1.9c-0.3-0.6-0.8-1-1.3-1.3c-0.6-0.3-1.2-0.5-1.9-0.5h-0.2
		c-0.7,0-1.3,0.2-1.9,0.5c-0.6,0.3-1,0.8-1.4,1.4c-0.3,0.6-0.5,1.2-0.5,1.9v15.9c0,0.7,0.2,1.4,0.5,2c0.4,0.6,0.8,1.1,1.4,1.5
		c0.6,0.4,1.2,0.6,1.8,0.6h0.2c0.7,0,1.3-0.2,1.9-0.5c0.6-0.4,1-0.8,1.3-1.5c0.3-0.6,0.5-1.3,0.5-2c0-0.3,0.1-0.5,0.2-0.7
		c0.1-0.2,0.3-0.4,0.5-0.5c0.2-0.1,0.5-0.2,0.7-0.2h3.3c0.3,0,0.5,0.1,0.7,0.2s0.4,0.3,0.5,0.5c0.1,0.2,0.2,0.5,0.2,0.7v0.2
		c0,1.1-0.2,2.2-0.5,3.3c-0.4,1-0.9,2-1.5,2.8c-0.7,0.8-1.5,1.6-2.4,2.1c-1.4,0.9-2.9,1.3-4.6,1.3h-1.6c-1.1,0-2.1-0.2-3.1-0.6
		c-1-0.4-1.9-0.9-2.7-1.7C352,192.4,351.3,191.5,350.8,190.5z"/>
	<path class="st1" d="M374.2,190.5c-0.8-1.5-1.3-3.1-1.3-4.8v-16c0-1.1,0.2-2.2,0.6-3.3s0.9-2,1.6-2.8c0.7-0.8,1.5-1.5,2.5-2.1
		c1.4-0.8,2.9-1.2,4.7-1.2h1.6c1.1,0,2.2,0.2,3.2,0.6c1,0.4,2,0.9,2.8,1.6c0.8,0.7,1.5,1.5,2.1,2.4c0.8,1.4,1.2,3,1.2,4.7l0,16.1
		c0,1.1-0.2,2.2-0.6,3.2s-0.9,2-1.6,2.8c-0.7,0.9-1.5,1.6-2.5,2.2c-1.4,0.9-3,1.3-4.6,1.3h-1.6c-1.1,0-2.2-0.2-3.2-0.6
		c-1-0.4-2-0.9-2.8-1.7C375.4,192.4,374.7,191.5,374.2,190.5z M383.1,189.6c0.7,0,1.3-0.2,1.9-0.6s1-0.9,1.4-1.5s0.5-1.3,0.5-2
		v-15.9c0-0.7-0.2-1.3-0.5-1.9s-0.8-1-1.4-1.4s-1.2-0.5-1.9-0.5h-0.1c-0.7,0-1.4,0.2-2,0.5s-1.1,0.8-1.4,1.4s-0.5,1.2-0.5,1.9v15.9
		c0,0.7,0.2,1.4,0.5,2s0.8,1.1,1.4,1.5c0.6,0.4,1.2,0.6,1.9,0.6H383.1z"/>
	<path class="st1" d="M397.3,193.7v-31.6c0-0.2,0.1-0.4,0.2-0.6c0.1-0.2,0.3-0.3,0.5-0.5c0.2-0.1,0.4-0.2,0.6-0.2h5.6
		c0.2,0,0.5,0,0.7,0.1c0.2,0.1,0.4,0.2,0.6,0.4c0.1,0.1,0.2,0.3,0.2,0.5l4.4,14.3l4.4-14.3c0.1-0.3,0.3-0.5,0.6-0.7s0.6-0.3,1-0.3
		h5.6c0.4,0,0.7,0.1,0.9,0.4c0.2,0.2,0.4,0.5,0.4,0.9v31.6c0,0.4-0.1,0.7-0.4,0.9c-0.2,0.2-0.5,0.4-0.9,0.4h-3.5
		c-0.4,0-0.7-0.1-0.9-0.4s-0.3-0.5-0.3-0.9v-20.2l-3.7,11.9c0,0.1-0.1,0.2-0.2,0.3c-0.1,0.1-0.2,0.2-0.4,0.4l-0.2,0.1
		c-0.3,0.1-0.6,0.2-0.8,0.2h-3.1c-0.2,0-0.5-0.1-0.8-0.2l-0.2-0.1c-0.2-0.2-0.4-0.4-0.5-0.6l-3.7-11.9v20.2c0,0.2-0.1,0.4-0.2,0.6
		s-0.3,0.4-0.5,0.5c-0.2,0.1-0.4,0.2-0.6,0.2h-3.5c-0.2,0-0.4-0.1-0.6-0.2c-0.2-0.1-0.4-0.3-0.5-0.5
		C397.4,194.1,397.3,193.9,397.3,193.7z"/>
	<path class="st1" d="M427.1,193.7v-31.6c0-0.2,0.1-0.4,0.2-0.6c0.1-0.2,0.3-0.3,0.5-0.5c0.2-0.1,0.4-0.2,0.6-0.2h5.6
		c0.2,0,0.5,0,0.7,0.1c0.2,0.1,0.4,0.2,0.6,0.4c0.1,0.1,0.2,0.3,0.2,0.5l4.4,14.3l4.4-14.3c0.1-0.3,0.3-0.5,0.6-0.7s0.6-0.3,1-0.3
		h5.6c0.4,0,0.7,0.1,0.9,0.4c0.2,0.2,0.4,0.5,0.4,0.9v31.6c0,0.4-0.1,0.7-0.4,0.9c-0.2,0.2-0.5,0.4-0.9,0.4h-3.5
		c-0.4,0-0.7-0.1-0.9-0.4s-0.3-0.5-0.3-0.9v-20.2l-3.7,11.9c0,0.1-0.1,0.2-0.2,0.3c-0.1,0.1-0.2,0.2-0.4,0.4l-0.2,0.1
		c-0.3,0.1-0.6,0.2-0.8,0.2h-3.1c-0.2,0-0.5-0.1-0.8-0.2l-0.2-0.1c-0.2-0.2-0.4-0.4-0.5-0.6l-3.7-11.9v20.2c0,0.2-0.1,0.4-0.2,0.6
		s-0.3,0.4-0.5,0.5c-0.2,0.1-0.4,0.2-0.6,0.2h-3.5c-0.2,0-0.4-0.1-0.6-0.2c-0.2-0.1-0.4-0.3-0.5-0.5
		C427.1,194.1,427.1,193.9,427.1,193.7z"/>
	<path class="st1" d="M458.3,190.3c-0.9-1.5-1.3-3.1-1.3-4.8l0-22.5c0-0.6,0.1-1,0.2-1.3c0.2-0.3,0.4-0.5,0.7-0.7
		c0.3-0.1,0.7-0.2,1.2-0.2h1.8c0.5,0,0.8,0,1,0c0.2,0,0.3,0,0.4,0.1s0.2,0.1,0.4,0.2c0.2,0.1,0.3,0.3,0.4,0.6
		c0.1,0.3,0.1,0.7,0.1,1.2l0,22.2c0,0.7,0.2,1.4,0.5,2s0.8,1.1,1.4,1.5c0.6,0.4,1.2,0.5,1.9,0.5h0.8c0.7,0,1.3-0.2,1.9-0.5
		c0.6-0.4,1.1-0.8,1.4-1.5c0.3-0.6,0.5-1.3,0.5-2l0-22.2c0-0.6,0.1-1,0.2-1.3c0.2-0.3,0.4-0.5,0.7-0.6c0.3-0.1,0.7-0.2,1.2-0.2h1.9
		c0.6,0,1,0.1,1.3,0.2c0.3,0.1,0.5,0.3,0.7,0.6c0.1,0.3,0.2,0.8,0.2,1.4l0,22.5c0,1.1-0.2,2.2-0.6,3.3s-1,2-1.7,2.8
		c-0.7,0.8-1.6,1.6-2.5,2.1c-1.5,0.9-3.1,1.3-4.8,1.3h-1.8c-1.2,0-2.3-0.2-3.3-0.6s-2-0.9-2.9-1.7
		C459.5,192.1,458.8,191.3,458.3,190.3z"/>
	<path class="st1" d="M481.9,193.6v-31.5c0-0.2,0.1-0.5,0.2-0.7c0.1-0.2,0.3-0.4,0.5-0.5c0.2-0.1,0.4-0.2,0.7-0.2h5.8
		c0.3,0,0.5,0.1,0.8,0.2c0.3,0.1,0.5,0.3,0.7,0.5c0.2,0.2,0.3,0.4,0.4,0.6l7.1,21.2l-0.5-21.1c0-0.4,0.1-0.7,0.4-0.9
		c0.2-0.3,0.5-0.4,0.9-0.4h3.7c0.2,0,0.4,0.1,0.6,0.2c0.2,0.1,0.4,0.2,0.5,0.4c0.1,0.2,0.2,0.3,0.2,0.4v31.5c0,0.5-0.1,0.9-0.4,1.2
		s-0.5,0.4-0.9,0.4h-5c-0.4,0-0.7-0.1-1.1-0.4c-0.3-0.2-0.6-0.5-0.7-0.9l-7.9-21.6l0.4,21.5c0,0.4-0.1,0.7-0.4,0.9
		c-0.2,0.3-0.6,0.4-0.9,0.4h-3.6c-0.2,0-0.5-0.1-0.7-0.2c-0.2-0.1-0.4-0.3-0.5-0.5C481.9,194.1,481.9,193.9,481.9,193.6z"/>
	<path class="st1" d="M508.5,193.8v-31.5c0-0.4,0.1-0.7,0.4-0.9c0.2-0.3,0.5-0.4,0.9-0.4h3.6c0.2,0,0.4,0.1,0.6,0.2s0.3,0.3,0.5,0.5
		s0.2,0.4,0.2,0.7v31.5c0,0.2-0.1,0.5-0.2,0.7s-0.3,0.4-0.5,0.5s-0.4,0.2-0.6,0.2h-3.6c-0.4,0-0.7-0.1-0.9-0.4
		C508.6,194.4,508.5,194.1,508.5,193.8z"/>
	<path class="st1" d="M523.6,193.7v-27.3h-3.9c-0.4,0-0.8-0.1-1-0.3c-0.3-0.2-0.4-0.5-0.4-0.9V162c0-0.4,0.1-0.6,0.4-0.9
		c0.3-0.2,0.6-0.3,1-0.3h14.2c0.3,0,0.5,0.1,0.7,0.2s0.4,0.3,0.5,0.4c0.1,0.2,0.2,0.4,0.2,0.6v3.3c0,0.2-0.1,0.4-0.2,0.6
		c-0.1,0.2-0.3,0.3-0.5,0.4c-0.2,0.1-0.5,0.2-0.7,0.2h-4.1v27.3c0,0.4-0.1,0.7-0.4,0.9c-0.2,0.3-0.5,0.4-0.9,0.4h-3.6
		c-0.2,0-0.4-0.1-0.6-0.2c-0.2-0.1-0.4-0.3-0.5-0.5S523.6,193.9,523.6,193.7z"/>
	<path class="st1" d="M543.1,193.9V180c-0.1-0.7-0.3-1.5-0.7-2.3l-5.7-14.8c-0.1-0.2-0.1-0.4-0.1-0.6c0-0.3,0.1-0.5,0.2-0.7
		c0.1-0.2,0.3-0.4,0.6-0.5c0.3-0.1,0.5-0.2,0.8-0.2h3c0.7,0,1.3,0.3,1.7,1l3.3,9.7c0.1,0.1,0.1,0.1,0.2,0.1c0,0,0.1,0,0.1-0.1
		l3.4-9.7c0.1-0.3,0.3-0.5,0.6-0.7s0.6-0.3,0.9-0.3h3.1c0.3,0,0.6,0.1,0.8,0.2c0.3,0.1,0.5,0.3,0.6,0.6c0.1,0.2,0.2,0.5,0.2,0.7
		c0,0.1,0,0.2,0,0.3c0,0.1,0,0.2-0.1,0.3l-5.8,14.8c-0.3,0.8-0.5,1.6-0.6,2.3v13.9c0,0.2-0.1,0.5-0.2,0.7c-0.1,0.2-0.3,0.4-0.6,0.5
		c-0.2,0.1-0.5,0.2-0.8,0.2h-3.6c-0.3,0-0.5-0.1-0.7-0.2c-0.2-0.1-0.4-0.3-0.6-0.5C543.2,194.3,543.1,194.1,543.1,193.9z"/>
	<path class="st1" d="M558.3,197.9c0-0.2,0.1-0.3,0.2-0.4l1.1-1.9c0,0,0,0,0-0.1c0,0,0-0.1,0-0.1c0-0.1,0-0.2-0.1-0.2
		c0-0.1-0.1-0.1-0.2-0.1c-0.3-0.1-0.6-0.3-0.8-0.6s-0.3-0.6-0.3-1v-3.7c0-0.3,0.1-0.6,0.2-0.9c0.2-0.3,0.4-0.5,0.6-0.6
		c0.3-0.1,0.5-0.2,0.9-0.2h3.8c0.3,0,0.6,0.1,0.9,0.2c0.3,0.2,0.5,0.4,0.6,0.6c0.2,0.3,0.2,0.6,0.2,0.9v3.7c0,0.5-0.2,0.9-0.5,1.3
		l-2.7,3.7c-0.1,0.1-0.2,0.1-0.3,0.2c-0.1,0-0.3,0-0.5,0h-2.7c-0.2,0-0.3-0.1-0.4-0.2C558.3,198.2,558.3,198,558.3,197.9z"/>
	<path class="st1" d="M73.3,233.7v-31.6c0-0.2,0.1-0.4,0.2-0.6c0.1-0.2,0.3-0.3,0.5-0.5c0.2-0.1,0.4-0.2,0.6-0.2h5.6
		c0.2,0,0.5,0,0.7,0.1c0.2,0.1,0.4,0.2,0.6,0.4c0.1,0.1,0.2,0.3,0.2,0.5l4.4,14.3l4.4-14.3c0.1-0.3,0.3-0.5,0.6-0.7s0.6-0.3,1-0.3
		h5.6c0.4,0,0.7,0.1,0.9,0.4c0.2,0.2,0.4,0.5,0.4,0.9v31.6c0,0.4-0.1,0.7-0.4,0.9c-0.2,0.2-0.5,0.4-0.9,0.4h-3.5
		c-0.4,0-0.7-0.1-0.9-0.4s-0.3-0.5-0.3-0.9v-20.2l-3.7,11.9c0,0.1-0.1,0.2-0.2,0.3c-0.1,0.1-0.2,0.2-0.4,0.4l-0.2,0.1
		c-0.3,0.1-0.6,0.2-0.8,0.2h-3.1c-0.2,0-0.5-0.1-0.8-0.2l-0.2-0.1c-0.2-0.2-0.4-0.4-0.5-0.6l-3.7-11.9v20.2c0,0.2-0.1,0.4-0.2,0.6
		s-0.3,0.4-0.5,0.5c-0.2,0.1-0.4,0.2-0.6,0.2h-3.5c-0.2,0-0.4-0.1-0.6-0.2c-0.2-0.1-0.4-0.3-0.5-0.5
		C73.4,234.1,73.3,233.9,73.3,233.7z"/>
	<path class="st1" d="M103.2,233.6v-31.5c0-0.4,0.1-0.7,0.4-0.9c0.2-0.2,0.6-0.4,1-0.4h14.4c0.4,0,0.7,0.1,0.9,0.4
		c0.3,0.2,0.4,0.5,0.4,0.9v3.4c0,0.2-0.1,0.5-0.2,0.7c-0.1,0.2-0.3,0.4-0.5,0.5c-0.2,0.1-0.4,0.2-0.7,0.2h-9.8v7.5h7.5
		c0.4,0,0.7,0.1,0.9,0.3c0.2,0.2,0.3,0.5,0.3,0.9v3.4c0,0.4-0.1,0.7-0.3,0.9c-0.2,0.2-0.5,0.3-0.9,0.3h-7.5v8.9h9.8
		c0.4,0,0.7,0.1,0.9,0.4c0.3,0.2,0.4,0.5,0.4,0.9v3.4c0,0.2-0.1,0.5-0.2,0.7c-0.1,0.2-0.3,0.4-0.5,0.5c-0.2,0.1-0.4,0.2-0.7,0.2
		h-14.4c-0.4,0-0.7-0.1-0.9-0.4C103.3,234.2,103.2,233.9,103.2,233.6z"/>
	<path class="st1" d="M124.4,233.6v-31.5c0-0.4,0.1-0.7,0.4-0.9c0.2-0.2,0.6-0.4,1-0.4h14.4c0.4,0,0.7,0.1,0.9,0.4
		c0.3,0.2,0.4,0.5,0.4,0.9v3.4c0,0.2-0.1,0.5-0.2,0.7c-0.1,0.2-0.3,0.4-0.5,0.5c-0.2,0.1-0.4,0.2-0.7,0.2h-9.8v7.5h7.5
		c0.4,0,0.7,0.1,0.9,0.3c0.2,0.2,0.3,0.5,0.3,0.9v3.4c0,0.4-0.1,0.7-0.3,0.9c-0.2,0.2-0.5,0.3-0.9,0.3h-7.5v8.9h9.8
		c0.4,0,0.7,0.1,0.9,0.4c0.3,0.2,0.4,0.5,0.4,0.9v3.4c0,0.2-0.1,0.5-0.2,0.7c-0.1,0.2-0.3,0.4-0.5,0.5c-0.2,0.1-0.4,0.2-0.7,0.2
		h-14.4c-0.4,0-0.7-0.1-0.9-0.4C124.5,234.2,124.4,233.9,124.4,233.6z"/>
	<path class="st1" d="M148.9,233.7v-27.3H145c-0.4,0-0.8-0.1-1-0.3c-0.3-0.2-0.4-0.5-0.4-0.9V202c0-0.4,0.1-0.6,0.4-0.9
		c0.3-0.2,0.6-0.3,1-0.3h14.2c0.3,0,0.5,0.1,0.7,0.2s0.4,0.3,0.5,0.4s0.2,0.4,0.2,0.6v3.3c0,0.2-0.1,0.4-0.2,0.6s-0.3,0.3-0.5,0.4
		s-0.5,0.2-0.7,0.2H155v27.3c0,0.4-0.1,0.7-0.4,0.9c-0.2,0.3-0.5,0.4-0.9,0.4h-3.6c-0.2,0-0.4-0.1-0.6-0.2c-0.2-0.1-0.4-0.3-0.5-0.5
		S148.9,233.9,148.9,233.7z"/>
	<path class="st1" d="M170.8,233.7v-31.5c0-0.4,0.1-0.7,0.4-1c0.3-0.3,0.6-0.4,1.1-0.4h9.7c1.2,0,2.1,0.1,2.9,0.4
		c0.8,0.3,1.5,0.6,2,1c0.5,0.4,1,0.9,1.4,1.5c0.4,0.6,0.7,1.4,1,2.3c0.2,0.9,0.4,2,0.4,3.1v4.3c0,0.8-0.2,1.6-0.5,2.4
		c-0.3,0.8-0.7,1.4-1.3,2c-0.6,0.6-1.2,1.1-2,1.5c-1.1,0.6-2.4,0.9-3.8,0.9h-3.5c-0.4,0-0.7,0-0.9,0v13.4c0,0.4-0.1,0.7-0.4,0.9
		s-0.6,0.3-1,0.3h-3.8c-0.5,0-0.8-0.1-1.1-0.3C171,234.4,170.8,234.1,170.8,233.7z M181,215.1c0.5,0,1-0.1,1.4-0.4
		c0.4-0.3,0.8-0.6,1-1c0.2-0.4,0.4-0.9,0.4-1.4v-3.9c0-0.5-0.1-1-0.4-1.4c-0.2-0.4-0.6-0.8-1-1c-0.4-0.2-0.9-0.4-1.4-0.4h-3
		c-0.2,0-0.4,0.1-0.5,0.2s-0.2,0.3-0.2,0.5v7.9c0,0.1,0,0.3,0.1,0.4c0.1,0.1,0.2,0.3,0.3,0.4c0.1,0.1,0.3,0.1,0.4,0.1H181z"/>
	<path class="st1" d="M193.5,233.6v-31.5c0-0.4,0.1-0.7,0.4-0.9c0.2-0.2,0.6-0.4,1-0.4h14.4c0.4,0,0.7,0.1,0.9,0.4
		c0.3,0.2,0.4,0.5,0.4,0.9v3.4c0,0.2-0.1,0.5-0.2,0.7c-0.1,0.2-0.3,0.4-0.5,0.5c-0.2,0.1-0.4,0.2-0.7,0.2h-9.8v7.5h7.5
		c0.4,0,0.7,0.1,0.9,0.3c0.2,0.2,0.3,0.5,0.3,0.9v3.4c0,0.4-0.1,0.7-0.3,0.9c-0.2,0.2-0.5,0.3-0.9,0.3h-7.5v8.9h9.8
		c0.4,0,0.7,0.1,0.9,0.4c0.3,0.2,0.4,0.5,0.4,0.9v3.4c0,0.2-0.1,0.5-0.2,0.7c-0.1,0.2-0.3,0.4-0.5,0.5c-0.2,0.1-0.4,0.2-0.7,0.2
		h-14.4c-0.4,0-0.7-0.1-0.9-0.4C193.6,234.2,193.5,233.9,193.5,233.6z"/>
	<path class="st1" d="M215.6,230.5c-0.8-1.5-1.3-3.1-1.3-4.8v-16c0-1.1,0.2-2.2,0.6-3.3s0.9-2,1.6-2.8c0.7-0.8,1.5-1.5,2.5-2.1
		c1.4-0.8,2.9-1.2,4.7-1.2h1.6c1.1,0,2.2,0.2,3.2,0.6c1,0.4,2,0.9,2.8,1.6c0.8,0.7,1.5,1.5,2.1,2.4c0.8,1.4,1.2,3,1.2,4.7l0,16.1
		c0,1.1-0.2,2.2-0.6,3.2s-0.9,2-1.6,2.8c-0.7,0.9-1.5,1.6-2.5,2.2c-1.4,0.9-3,1.3-4.6,1.3h-1.6c-1.1,0-2.2-0.2-3.2-0.6
		c-1-0.4-2-0.9-2.8-1.7C216.9,232.4,216.2,231.5,215.6,230.5z M224.5,229.6c0.7,0,1.3-0.2,1.9-0.6s1-0.9,1.4-1.5s0.5-1.3,0.5-2
		v-15.9c0-0.7-0.2-1.3-0.5-1.9s-0.8-1-1.4-1.4s-1.2-0.5-1.9-0.5h-0.1c-0.7,0-1.4,0.2-2,0.5s-1.1,0.8-1.4,1.4s-0.5,1.2-0.5,1.9v15.9
		c0,0.7,0.2,1.4,0.5,2s0.8,1.1,1.4,1.5c0.6,0.4,1.2,0.6,1.9,0.6H224.5z"/>
	<path class="st1" d="M238.8,233.7v-31.5c0-0.4,0.1-0.7,0.4-1c0.3-0.3,0.6-0.4,1.1-0.4h9.7c1.2,0,2.1,0.1,2.9,0.4
		c0.8,0.3,1.5,0.6,2,1c0.5,0.4,1,0.9,1.4,1.5c0.4,0.6,0.7,1.4,1,2.3c0.2,0.9,0.4,2,0.4,3.1v4.3c0,0.8-0.2,1.6-0.5,2.4
		c-0.3,0.8-0.7,1.4-1.3,2c-0.6,0.6-1.2,1.1-2,1.5c-1.1,0.6-2.4,0.9-3.8,0.9h-3.5c-0.4,0-0.7,0-0.9,0v13.4c0,0.4-0.1,0.7-0.4,0.9
		s-0.6,0.3-1,0.3h-3.8c-0.5,0-0.8-0.1-1.1-0.3C239,234.4,238.8,234.1,238.8,233.7z M249,215.1c0.5,0,1-0.1,1.4-0.4
		c0.4-0.3,0.8-0.6,1-1c0.2-0.4,0.4-0.9,0.4-1.4v-3.9c0-0.5-0.1-1-0.4-1.4c-0.2-0.4-0.6-0.8-1-1c-0.4-0.2-0.9-0.4-1.4-0.4h-3
		c-0.2,0-0.4,0.1-0.5,0.2s-0.2,0.3-0.2,0.5v7.9c0,0.1,0,0.3,0.1,0.4c0.1,0.1,0.2,0.3,0.3,0.4c0.1,0.1,0.3,0.1,0.4,0.1H249z"/>
	<path class="st1" d="M261.3,233.8v-31.9c0-0.2,0.1-0.4,0.2-0.6c0.1-0.2,0.3-0.3,0.5-0.5c0.2-0.1,0.4-0.2,0.6-0.2h3.6
		c0.2,0,0.4,0.1,0.6,0.2s0.3,0.3,0.5,0.5c0.1,0.2,0.2,0.4,0.2,0.6V229h7.3c0.4,0,0.6,0.1,0.9,0.3s0.3,0.5,0.3,0.9v3.7
		c0,0.3-0.1,0.6-0.3,0.8c-0.2,0.2-0.5,0.3-0.9,0.3h-12.2c-0.2,0-0.4-0.1-0.6-0.2c-0.2-0.1-0.3-0.3-0.4-0.4S261.3,234,261.3,233.8z"
		/>
	<path class="st1" d="M278.7,233.6v-31.5c0-0.4,0.1-0.7,0.4-0.9c0.2-0.2,0.6-0.4,1-0.4h14.4c0.4,0,0.7,0.1,0.9,0.4
		c0.3,0.2,0.4,0.5,0.4,0.9v3.4c0,0.2-0.1,0.5-0.2,0.7c-0.1,0.2-0.3,0.4-0.5,0.5c-0.2,0.1-0.4,0.2-0.7,0.2h-9.8v7.5h7.5
		c0.4,0,0.7,0.1,0.9,0.3c0.2,0.2,0.3,0.5,0.3,0.9v3.4c0,0.4-0.1,0.7-0.3,0.9c-0.2,0.2-0.5,0.3-0.9,0.3h-7.5v8.9h9.8
		c0.4,0,0.7,0.1,0.9,0.4c0.3,0.2,0.4,0.5,0.4,0.9v3.4c0,0.2-0.1,0.5-0.2,0.7c-0.1,0.2-0.3,0.4-0.5,0.5c-0.2,0.1-0.4,0.2-0.7,0.2H280
		c-0.4,0-0.7-0.1-0.9-0.4C278.8,234.2,278.7,233.9,278.7,233.6z"/>
	<path class="st1" d="M311.4,233.8l-5.8-31.7c0,0,0-0.1,0-0.2c0-0.3,0.1-0.5,0.3-0.7s0.5-0.3,0.8-0.3h3.5c0.4,0,0.7,0.1,1,0.4
		c0.3,0.2,0.5,0.5,0.5,0.9l3.2,19.5c0,0.1,0.1,0.1,0.1,0.2c0,0,0.1,0,0.2,0c0.1,0,0.1,0,0.2,0c0,0,0.1-0.1,0.1-0.2l2.6-19.5
		c0-0.2,0.1-0.5,0.3-0.7c0.2-0.2,0.3-0.4,0.6-0.5s0.4-0.2,0.6-0.2h3.9c0.2,0,0.4,0.1,0.6,0.2c0.2,0.1,0.4,0.3,0.6,0.5
		s0.3,0.4,0.3,0.6l3.3,19.9c0,0.1,0.1,0.2,0.2,0.2c0,0,0.1,0,0.1,0c0,0,0.1-0.1,0.1-0.1l2.7-19.8c0.1-0.4,0.3-0.7,0.5-0.9
		c0.3-0.3,0.6-0.4,1-0.4h3.5c0.2,0,0.4,0.1,0.6,0.2s0.3,0.2,0.4,0.4c0.1,0.2,0.2,0.3,0.1,0.4l-5,31.5c-0.1,0.5-0.3,0.9-0.5,1.2
		c-0.3,0.3-0.6,0.4-1,0.4h-4.9c-0.4,0-0.7-0.1-1-0.4c-0.3-0.2-0.5-0.5-0.5-0.9l-2.8-15.6l-2.4,15.3c-0.1,0.5-0.3,0.9-0.6,1.2
		c-0.3,0.3-0.6,0.4-1,0.4h-4.8c-0.2,0-0.5-0.1-0.7-0.2c-0.2-0.1-0.4-0.3-0.6-0.5S311.4,234,311.4,233.8z"/>
	<path class="st1" d="M340.9,233.7v-31.5c0-0.2,0.1-0.4,0.2-0.6s0.3-0.4,0.5-0.5c0.2-0.1,0.4-0.2,0.6-0.2h3.6c0.4,0,0.7,0.1,0.9,0.4
		c0.3,0.2,0.4,0.5,0.4,0.9v12l9.2,0v-12c0-0.2,0.1-0.4,0.2-0.6c0.1-0.2,0.3-0.4,0.5-0.5c0.2-0.1,0.4-0.2,0.7-0.2h3.5
		c0.2,0,0.5,0.1,0.7,0.2c0.2,0.1,0.4,0.3,0.5,0.5c0.1,0.2,0.2,0.4,0.2,0.6v31.5c0,0.2-0.1,0.5-0.2,0.7c-0.1,0.2-0.3,0.4-0.5,0.5
		s-0.4,0.2-0.7,0.2h-3.5c-0.2,0-0.5-0.1-0.7-0.2s-0.4-0.3-0.5-0.5s-0.2-0.4-0.2-0.7v-13.6l-9.2,0v13.5c0,0.2-0.1,0.5-0.2,0.7
		c-0.1,0.2-0.3,0.4-0.5,0.5c-0.2,0.1-0.4,0.2-0.7,0.2h-3.6c-0.2,0-0.4-0.1-0.6-0.2c-0.2-0.1-0.4-0.3-0.5-0.5
		C341,234.1,340.9,233.9,340.9,233.7z"/>
	<path class="st1" d="M367.7,230.5c-0.8-1.5-1.3-3.1-1.3-4.8v-16c0-1.1,0.2-2.2,0.6-3.3s0.9-2,1.6-2.8c0.7-0.8,1.5-1.5,2.5-2.1
		c1.4-0.8,2.9-1.2,4.7-1.2h1.6c1.1,0,2.2,0.2,3.2,0.6c1,0.4,2,0.9,2.8,1.6c0.8,0.7,1.5,1.5,2.1,2.4c0.8,1.4,1.2,3,1.2,4.7l0,16.1
		c0,1.1-0.2,2.2-0.6,3.2s-0.9,2-1.6,2.8c-0.7,0.9-1.5,1.6-2.5,2.2c-1.4,0.9-3,1.3-4.6,1.3h-1.6c-1.1,0-2.2-0.2-3.2-0.6
		c-1-0.4-2-0.9-2.8-1.7C369,232.4,368.3,231.5,367.7,230.5z M376.6,229.6c0.7,0,1.3-0.2,1.9-0.6s1-0.9,1.4-1.5s0.5-1.3,0.5-2v-15.9
		c0-0.7-0.2-1.3-0.5-1.9s-0.8-1-1.4-1.4s-1.2-0.5-1.9-0.5h-0.1c-0.7,0-1.4,0.2-2,0.5s-1.1,0.8-1.4,1.4s-0.5,1.2-0.5,1.9v15.9
		c0,0.7,0.2,1.4,0.5,2s0.8,1.1,1.4,1.5c0.6,0.4,1.2,0.6,1.9,0.6H376.6z"/>
	<path class="st1" d="M399.5,230.5c-0.8-1.4-1.2-3-1.2-4.8v-16.1c0-1.1,0.2-2.2,0.5-3.2s0.9-1.9,1.6-2.8c0.7-0.8,1.5-1.5,2.4-2.1
		c1.3-0.8,2.8-1.2,4.5-1.2h1.6c1.1,0,2.1,0.2,3.1,0.6c1,0.4,1.9,0.9,2.7,1.6c0.8,0.7,1.5,1.5,2,2.4c0.8,1.4,1.2,3,1.2,4.7v0
		c0,0.3,0,0.5-0.2,0.7c-0.1,0.2-0.3,0.4-0.5,0.6c-0.2,0.1-0.4,0.2-0.7,0.2h-3.3c-0.3,0-0.5-0.1-0.7-0.2c-0.2-0.1-0.4-0.3-0.5-0.6
		c-0.1-0.2-0.2-0.5-0.2-0.7v-0.1c0-0.7-0.2-1.4-0.5-1.9c-0.3-0.6-0.8-1-1.3-1.3c-0.6-0.3-1.2-0.5-1.9-0.5h-0.2
		c-0.7,0-1.3,0.2-1.9,0.5c-0.6,0.3-1,0.8-1.4,1.4c-0.3,0.6-0.5,1.2-0.5,1.9v15.9c0,0.7,0.2,1.4,0.5,2c0.4,0.6,0.8,1.1,1.4,1.5
		c0.6,0.4,1.2,0.6,1.8,0.6h0.2c0.7,0,1.3-0.2,1.9-0.5c0.6-0.4,1-0.8,1.3-1.5c0.3-0.6,0.5-1.3,0.5-2c0-0.3,0.1-0.5,0.2-0.7
		c0.1-0.2,0.3-0.4,0.5-0.5c0.2-0.1,0.5-0.2,0.7-0.2h3.3c0.3,0,0.5,0.1,0.7,0.2s0.4,0.3,0.5,0.5c0.1,0.2,0.2,0.5,0.2,0.7v0.2
		c0,1.1-0.2,2.2-0.5,3.3c-0.4,1-0.9,2-1.5,2.8c-0.7,0.8-1.5,1.6-2.4,2.1c-1.4,0.9-2.9,1.3-4.6,1.3h-1.6c-1.1,0-2.1-0.2-3.1-0.6
		c-1-0.4-1.9-0.9-2.7-1.7C400.7,232.4,400,231.5,399.5,230.5z"/>
	<path class="st1" d="M419.9,234c0-0.1,0-0.2,0-0.2l6.4-31.6c0.1-0.4,0.3-0.7,0.6-0.9c0.3-0.2,0.7-0.4,1.1-0.4h6.1
		c0.3,0,0.5,0.1,0.8,0.2c0.3,0.1,0.5,0.3,0.7,0.5c0.2,0.2,0.3,0.4,0.3,0.6l6.4,31.6c0,0.1,0,0.1,0,0.2c0,0.3-0.1,0.6-0.3,0.7
		c-0.2,0.2-0.5,0.3-0.9,0.3h-4.1c-0.7,0-1.2-0.4-1.3-1.1l-1.5-7.9h-6.3l-1.5,7.9c-0.1,0.4-0.2,0.7-0.4,0.8c-0.2,0.2-0.5,0.2-0.9,0.2
		h-4.1c-0.4,0-0.7-0.1-0.9-0.3C420.1,234.5,419.9,234.3,419.9,234z M433.6,220.3l-2.1-12.2c0-0.1-0.1-0.1-0.1-0.2
		c0,0-0.1-0.1-0.2-0.1s-0.1,0-0.2,0.1c0,0-0.1,0.1-0.1,0.2l-2,12.2H433.6z"/>
	<path class="st1" d="M445.5,233.9v-31.5c0-0.2,0.1-0.5,0.2-0.7c0.1-0.2,0.3-0.4,0.5-0.5c0.2-0.1,0.4-0.2,0.7-0.2h9.6
		c1.5,0,2.8,0.3,3.9,0.9c1.1,0.6,2,1.4,2.6,2.4c0.6,1,0.9,2.2,0.9,3.5v5.9c0,0.8-0.2,1.5-0.5,2.3s-0.7,1.4-1.3,2
		c-0.5,0.6-1.2,1.1-1.9,1.5l0,0.1l4.9,14.3c0,0,0,0.1,0,0.3c0,0.2-0.1,0.4-0.3,0.5c-0.2,0.1-0.4,0.2-0.7,0.2h-4.2
		c-0.2,0-0.4-0.1-0.6-0.2c-0.2-0.1-0.4-0.2-0.6-0.4c-0.2-0.2-0.3-0.3-0.4-0.5l-3.9-12.2c-0.4-0.2-0.8-0.3-1.2-0.3
		c-0.5,0-1,0.2-1.3,0.6v11.9c0,0.3-0.1,0.6-0.4,0.8c-0.3,0.2-0.6,0.3-0.9,0.3h-3.9c-0.4,0-0.7-0.1-1-0.3
		C445.7,234.4,445.5,234.2,445.5,233.9z M455,215.5c0.5,0,1-0.1,1.4-0.4c0.4-0.2,0.8-0.5,1-0.9s0.4-0.8,0.4-1.3v-4.4
		c0-0.5-0.1-0.9-0.4-1.4c-0.2-0.4-0.6-0.7-1-1c-0.4-0.2-0.9-0.4-1.4-0.4h-2.7c-0.2,0-0.3,0.1-0.4,0.2c-0.1,0.1-0.2,0.3-0.2,0.5v8.2
		c0,0.2,0.1,0.4,0.2,0.6c0.2,0.2,0.4,0.2,0.6,0.2H455z"/>
	<path class="st1" d="M469.4,233.6v-31.5c0-0.4,0.1-0.7,0.4-0.9c0.2-0.2,0.6-0.4,1-0.4h14.4c0.4,0,0.7,0.1,0.9,0.4
		c0.3,0.2,0.4,0.5,0.4,0.9v3.4c0,0.2-0.1,0.5-0.2,0.7c-0.1,0.2-0.3,0.4-0.5,0.5c-0.2,0.1-0.4,0.2-0.7,0.2h-9.8v7.5h7.5
		c0.4,0,0.7,0.1,0.9,0.3c0.2,0.2,0.3,0.5,0.3,0.9v3.4c0,0.4-0.1,0.7-0.3,0.9c-0.2,0.2-0.5,0.3-0.9,0.3h-7.5v8.9h9.8
		c0.4,0,0.7,0.1,0.9,0.4c0.3,0.2,0.4,0.5,0.4,0.9v3.4c0,0.2-0.1,0.5-0.2,0.7c-0.1,0.2-0.3,0.4-0.5,0.5c-0.2,0.1-0.4,0.2-0.7,0.2
		h-14.4c-0.4,0-0.7-0.1-0.9-0.4C469.6,234.2,469.4,233.9,469.4,233.6z"/>
	<path class="st1" d="M489.3,233.3v-3.7c0-0.3,0.1-0.6,0.2-0.9c0.2-0.3,0.4-0.5,0.6-0.6c0.3-0.1,0.6-0.2,0.9-0.2h3.7
		c0.3,0,0.6,0.1,0.9,0.2c0.3,0.2,0.5,0.4,0.6,0.6c0.2,0.3,0.2,0.6,0.2,0.9v3.7c0,0.3-0.1,0.6-0.2,0.9c-0.2,0.3-0.4,0.5-0.6,0.6
		c-0.3,0.2-0.6,0.2-0.9,0.2H491c-0.3,0-0.6-0.1-0.9-0.2c-0.3-0.2-0.5-0.4-0.6-0.6C489.3,233.9,489.3,233.6,489.3,233.3z"/>
</g>
<polyline class="st1" points="933.5,331 1000,331 1000,259.3 "/>
<g>
	<g>
		<defs>
			
				<rect id="SVGID_2_" x="960.6" y="296.6" transform="matrix(0.7071 -0.7071 0.7071 0.7071 67.8485 781.3388)" width="32.9" height="24.3"/>
		</defs>
		<clipPath id="SVGID_3_">
			<use xlink:href="#SVGID_2_"  style="overflow:visible;"/>
		</clipPath>
		<path class="st2" d="M986.9,311.2l3.4,0.5c0.9-1,3.9-5.4,2.9-9c-4.8-4.8-12.6-8.4-14.4-8.3c-3.5,0.4-6.8,3.3-6.8,3.3
			s0.3,0.8,0.9,1.6 M979.4,304.5c-1,1-0.9,2.7,0.3,3.8c1.1,1.1,2.8,1.2,3.8,0.3c1-1,0.9-2.7-0.3-3.8S980.3,303.5,979.4,304.5
			L979.4,304.5z M967.5,304.6c-0.8-0.6-1.6-0.9-1.6-0.9s-2.9,3.4-3.3,6.8c-0.1,1.8,3.5,9.5,8.3,14.4c3.6,1,8-2,9-2.9l-0.5-3.4
			 M974.2,320.5c0,0,4.6-0.3,9.5-5.2c4.9-4.9,5.2-9.5,5.2-9.5 M978.3,296.8c-4,0.9-7.3,3.8-8.3,4.9c-1.1,1.1-3.9,4.3-4.9,8.3
			 M972.8,311c-1,1-0.9,2.7,0.3,3.8s2.8,1.2,3.8,0.3c1-1,0.9-2.7-0.3-3.8C975.5,310.2,973.8,310.1,972.8,311L972.8,311z"/>
	</g>
</g>
</svg>
