<?xml version="1.0" encoding="utf-8"?>
<!-- Generator: Adobe Illustrator 22.1.0, SVG Export Plug-In . SVG Version: 6.00 Build 0)  -->
<svg version="1.1" id="Layer_1" xmlns="http://www.w3.org/2000/svg" xmlns:xlink="http://www.w3.org/1999/xlink" x="0px" y="0px"
	 viewBox="0 0 560 260" style="enable-background:new 0 0 560 260;" xml:space="preserve">
<style type="text/css">
	.st0{fill:url(#SVGID_1_);}
	.st1{fill:#FFFFFF;}
	.st2{enable-background:new    ;}
</style>
<linearGradient id="SVGID_1_" gradientUnits="userSpaceOnUse" x1="0" y1="132" x2="560" y2="132" gradientTransform="matrix(1 0 0 -1 0 262)">
	<stop  offset="0" style="stop-color:#2C024C"/>
	<stop  offset="1" style="stop-color:#170028"/>
</linearGradient>
<rect class="st0" width="560" height="260"/>
<rect x="512" y="212" transform="matrix(0.7071 -0.7071 0.7071 0.7071 -19.8293 472.1282)" class="st1" width="96" height="96"/>
<g>
	<rect x="528.9" y="235.1" transform="matrix(0.7071 -0.7071 0.7071 0.7071 -9.9428 449.8038)" width="18.2" height="3.6"/>
	<path d="M539.3,222.7c-0.9,0.9-4.2,4.2-5.2,5.2l2.6,2.6c1-1,4.2-4.2,5.2-5.2c2.1-2.1,5.6-2.1,7.7,0c2.1,2.1,2.1,5.6,0,7.7
		c-1,1-4.2,4.2-5.2,5.2l2.6,2.6c0.9-0.9,4.2-4.2,5.2-5.2c3.6-3.6,3.6-9.3,0-12.9C548.6,219.1,542.8,219.1,539.3,222.7L539.3,222.7z
		 M536.7,251.1c0.9-0.9,4.2-4.2,5.2-5.2l-2.6-2.6c-1,1-4.2,4.2-5.2,5.2c-2.1,2.1-5.6,2.1-7.7,0c-2.1-2.1-2.1-5.6,0-7.7
		c1-1,4.2-4.2,5.2-5.2L529,233c-0.9,0.9-4.2,4.2-5.2,5.2c-3.6,3.6-3.6,9.3,0,12.9C527.4,254.6,533.2,254.6,536.7,251.1L536.7,251.1z
		"/>
</g>
<g class="st2">
	<path class="st1" d="M71.1,104.3V86.5c-0.1-0.9-0.4-1.9-0.9-3L63,64.5c-0.1-0.3-0.2-0.5-0.2-0.8c0-0.3,0.1-0.6,0.3-0.9
		c0.2-0.3,0.4-0.5,0.8-0.7c0.3-0.2,0.7-0.3,1.1-0.3h3.9c0.9,0,1.6,0.4,2.1,1.3l4.2,12.4c0.1,0.1,0.2,0.1,0.3,0.1c0,0,0.1,0,0.2-0.1
		l4.3-12.4c0.1-0.4,0.4-0.7,0.7-0.9c0.4-0.3,0.7-0.4,1.1-0.4h3.9c0.4,0,0.8,0.1,1.1,0.3c0.3,0.2,0.6,0.4,0.8,0.7
		c0.2,0.3,0.3,0.6,0.3,1c0,0.1,0,0.2,0,0.4c0,0.2-0.1,0.3-0.1,0.3l-7.4,18.9c-0.4,1-0.6,2-0.8,3v17.8c0,0.3-0.1,0.6-0.3,0.8
		c-0.2,0.3-0.4,0.5-0.7,0.6c-0.3,0.1-0.6,0.2-1,0.2h-4.6c-0.3,0-0.6-0.1-0.9-0.2c-0.3-0.2-0.5-0.4-0.7-0.6S71.1,104.6,71.1,104.3z"
		/>
	<path class="st1" d="M93,100c-1.1-1.9-1.6-4-1.6-6.1V73.3c0-1.5,0.2-2.9,0.7-4.2c0.5-1.3,1.2-2.5,2.1-3.6c0.9-1.1,2-2,3.2-2.7
		c1.8-1,3.8-1.6,6-1.6h2.1c1.4,0,2.8,0.2,4.1,0.7c1.3,0.5,2.5,1.2,3.6,2c1.1,0.9,2,1.9,2.7,3.1c1,1.8,1.6,3.8,1.6,6.1l0.1,20.6
		c0,1.4-0.2,2.8-0.7,4.1c-0.5,1.3-1.2,2.5-2.1,3.6c-0.9,1.1-2,2-3.2,2.8c-1.8,1.1-3.8,1.7-5.9,1.7h-2.1c-1.4,0-2.8-0.2-4.1-0.7
		c-1.3-0.5-2.5-1.2-3.6-2.1C94.6,102.4,93.7,101.3,93,100z M104.4,98.8c0.9,0,1.7-0.2,2.4-0.7s1.3-1.1,1.8-1.9s0.7-1.6,0.7-2.5V73.2
		c0-0.9-0.2-1.7-0.7-2.5s-1-1.3-1.8-1.7c-0.8-0.4-1.6-0.6-2.5-0.6h-0.2c-0.9,0-1.7,0.2-2.5,0.6c-0.8,0.4-1.4,1-1.8,1.7
		c-0.4,0.7-0.7,1.5-0.7,2.5v20.4c0,0.9,0.2,1.7,0.7,2.5c0.5,0.8,1.1,1.4,1.8,1.9s1.6,0.7,2.5,0.7H104.4z"/>
	<path class="st1" d="M124.6,99.7c-1.1-1.9-1.7-3.9-1.7-6.1l-0.1-28.8c0-0.7,0.1-1.3,0.3-1.7c0.2-0.4,0.5-0.7,0.9-0.9
		c0.4-0.2,0.9-0.2,1.6-0.2h2.3c0.6,0,1.1,0,1.3,0s0.4,0,0.5,0.1c0.1,0.1,0.3,0.2,0.5,0.3c0.2,0.2,0.4,0.4,0.5,0.8s0.1,0.9,0.1,1.5
		l0.1,28.5c0,0.9,0.2,1.8,0.7,2.6c0.4,0.8,1,1.4,1.8,1.9c0.8,0.5,1.6,0.7,2.5,0.7h1c0.9,0,1.7-0.2,2.5-0.7c0.8-0.5,1.4-1.1,1.8-1.9
		s0.7-1.6,0.7-2.6l0.1-28.5c0-0.7,0.1-1.3,0.3-1.7c0.2-0.4,0.5-0.7,0.9-0.8c0.4-0.2,0.9-0.2,1.5-0.2h2.4c0.7,0,1.3,0.1,1.7,0.2
		c0.4,0.2,0.7,0.4,0.9,0.8s0.3,1,0.3,1.8l-0.1,28.8c0,1.5-0.3,2.9-0.8,4.2c-0.5,1.3-1.2,2.6-2.2,3.6c-0.9,1.1-2,2-3.3,2.7
		c-1.9,1.1-3.9,1.7-6.1,1.7h-2.3c-1.5,0-2.9-0.2-4.2-0.7c-1.3-0.5-2.6-1.2-3.7-2.1C126.2,102,125.3,101,124.6,99.7z"/>
	<path class="st1" d="M154.9,104.3V63.8c0-0.3,0.1-0.6,0.2-0.9c0.2-0.3,0.4-0.5,0.6-0.6s0.6-0.2,0.9-0.2h12.3c1.9,0,3.6,0.4,5,1.2
		s2.6,1.8,3.4,3.1c0.8,1.3,1.2,2.8,1.2,4.5v7.6c0,1-0.2,2-0.6,2.9c-0.4,0.9-0.9,1.8-1.6,2.6c-0.7,0.8-1.5,1.4-2.4,1.9L174,86
		l6.3,18.4c0,0,0.1,0.2,0.1,0.4c0,0.3-0.1,0.5-0.3,0.7c-0.2,0.2-0.5,0.3-0.9,0.3h-5.4c-0.3,0-0.5-0.1-0.8-0.2
		c-0.3-0.1-0.5-0.3-0.7-0.5c-0.2-0.2-0.4-0.4-0.5-0.7l-5.1-15.6c-0.5-0.3-1-0.4-1.6-0.4c-0.7,0-1.3,0.3-1.7,0.8v15.3
		c0,0.4-0.2,0.8-0.5,1c-0.3,0.3-0.7,0.4-1.2,0.4h-5c-0.5,0-0.9-0.1-1.3-0.4C155.1,105,154.9,104.7,154.9,104.3z M167.1,80.7
		c0.6,0,1.2-0.2,1.8-0.5s1-0.7,1.3-1.2c0.3-0.5,0.5-1.1,0.5-1.7v-5.7c0-0.6-0.2-1.2-0.5-1.7c-0.3-0.5-0.7-0.9-1.3-1.2
		c-0.5-0.3-1.1-0.5-1.8-0.5h-3.4c-0.2,0-0.4,0.1-0.6,0.3c-0.2,0.2-0.2,0.4-0.2,0.6v10.5c0,0.3,0.1,0.5,0.3,0.7
		c0.2,0.2,0.5,0.3,0.7,0.3H167.1z"/>
	<path class="st1" d="M192.4,104.4c0-0.1,0-0.2,0-0.3l8.3-40.5c0.1-0.5,0.4-0.9,0.8-1.2c0.4-0.3,0.9-0.5,1.5-0.5h7.9
		c0.4,0,0.7,0.1,1,0.2s0.6,0.3,0.9,0.6s0.4,0.5,0.4,0.8l8.2,40.5c0,0.1,0,0.2,0,0.3c0,0.4-0.1,0.7-0.4,1c-0.3,0.2-0.7,0.4-1.1,0.4
		h-5.3c-1,0-1.5-0.5-1.6-1.4l-1.9-10.2h-8.1l-1.9,10.2c-0.1,0.5-0.3,0.8-0.5,1.1c-0.2,0.2-0.6,0.3-1.1,0.3h-5.3
		c-0.5,0-0.9-0.1-1.2-0.4S192.4,104.8,192.4,104.4z M209.9,86.9l-2.7-15.7c0-0.1-0.1-0.2-0.1-0.2c0,0-0.1-0.1-0.2-0.1
		c-0.1,0-0.1,0-0.2,0.1s-0.1,0.1-0.1,0.2l-2.6,15.7H209.9z"/>
	<path class="st1" d="M225.1,104V64.1c0-0.3,0.1-0.7,0.3-1c0.2-0.3,0.4-0.6,0.7-0.7c0.3-0.2,0.6-0.3,0.9-0.3h12.6
		c1.4,0,2.7,0.2,4,0.7s2.4,1.1,3.5,2s1.9,1.9,2.6,3c1,1.8,1.5,3.8,1.5,5.9l0.1,20c0,1.4-0.2,2.8-0.7,4.1c-0.5,1.3-1.1,2.5-1.9,3.6
		c-0.8,1.1-1.8,2-3,2.8c-1.8,1.1-3.7,1.7-5.8,1.7h-7c0,0-0.1,0-0.1,0c0,0-0.1,0-0.1,0h-5.8c-0.3,0-0.6-0.1-0.9-0.3s-0.5-0.4-0.6-0.7
		S225.1,104.4,225.1,104z M237.9,98.3c0.9,0,1.8-0.2,2.6-0.7s1.5-1.1,1.9-1.9c0.5-0.8,0.7-1.7,0.7-2.6V74c0-0.8-0.2-1.6-0.6-2.3
		c-0.4-0.7-1-1.3-1.7-1.7s-1.5-0.6-2.3-0.6h-5.3c-0.3,0-0.5,0.1-0.7,0.3c-0.2,0.2-0.3,0.4-0.3,0.6v27.6c0,0.2,0,0.3,0.1,0.4
		c0.1,0.1,0.2,0.1,0.4,0.1H237.9z"/>
	<path class="st1" d="M265.9,104V63.6c0-0.3,0.1-0.5,0.2-0.8s0.4-0.5,0.6-0.6s0.5-0.2,0.8-0.2h4.6c0.5,0,0.9,0.2,1.2,0.5
		c0.3,0.3,0.5,0.7,0.5,1.2v15.4l11.8-0.1V63.6c0-0.3,0.1-0.5,0.2-0.8c0.2-0.3,0.4-0.5,0.6-0.6c0.3-0.2,0.6-0.2,0.9-0.2h4.5
		c0.3,0,0.6,0.1,0.9,0.2s0.5,0.4,0.7,0.6c0.2,0.3,0.2,0.5,0.2,0.8V104c0,0.3-0.1,0.6-0.2,0.8c-0.2,0.3-0.4,0.5-0.6,0.6
		c-0.3,0.1-0.6,0.2-0.9,0.2h-4.5c-0.3,0-0.6-0.1-0.9-0.2c-0.3-0.2-0.5-0.4-0.6-0.6c-0.2-0.3-0.2-0.5-0.2-0.8V86.6l-11.8,0.1V104
		c0,0.3-0.1,0.6-0.2,0.8c-0.1,0.3-0.4,0.5-0.6,0.6c-0.3,0.1-0.5,0.2-0.9,0.2h-4.6c-0.3,0-0.5-0.1-0.8-0.2c-0.3-0.2-0.5-0.4-0.6-0.6
		C266,104.6,265.9,104.3,265.9,104z"/>
	<path class="st1" d="M299,103.9V63.5c0-0.5,0.2-0.9,0.5-1.2c0.3-0.3,0.7-0.5,1.2-0.5h18.4c0.5,0,0.9,0.2,1.2,0.5
		c0.3,0.3,0.5,0.7,0.5,1.2v4.3c0,0.3-0.1,0.6-0.2,0.8c-0.2,0.3-0.4,0.5-0.6,0.6c-0.3,0.1-0.5,0.2-0.8,0.2h-12.6v9.6h9.6
		c0.5,0,0.8,0.1,1.1,0.4c0.3,0.3,0.4,0.7,0.4,1.1V85c0,0.5-0.1,0.8-0.4,1.1c-0.3,0.3-0.7,0.4-1.1,0.4h-9.6V98h12.6
		c0.5,0,0.9,0.2,1.2,0.5c0.3,0.3,0.5,0.7,0.5,1.2v4.3c0,0.3-0.1,0.6-0.2,0.8c-0.2,0.3-0.4,0.5-0.6,0.6c-0.3,0.1-0.5,0.2-0.8,0.2
		h-18.4c-0.5,0-0.9-0.2-1.2-0.5S299,104.4,299,103.9z"/>
	<path class="st1" d="M326.2,104.3V63.8c0-0.3,0.1-0.6,0.2-0.9c0.2-0.3,0.4-0.5,0.6-0.6s0.6-0.2,0.9-0.2h12.3c1.9,0,3.6,0.4,5,1.2
		c1.5,0.8,2.6,1.8,3.4,3.1c0.8,1.3,1.2,2.8,1.2,4.5v7.6c0,1-0.2,2-0.6,2.9c-0.4,0.9-0.9,1.8-1.6,2.6c-0.7,0.8-1.5,1.4-2.4,1.9
		l0.1,0.1l6.3,18.4c0,0,0.1,0.2,0.1,0.4c0,0.3-0.1,0.5-0.3,0.7c-0.2,0.2-0.5,0.3-0.8,0.3h-5.4c-0.3,0-0.5-0.1-0.8-0.2
		c-0.3-0.1-0.5-0.3-0.7-0.5s-0.4-0.4-0.5-0.7l-5.1-15.6c-0.5-0.3-1-0.4-1.6-0.4c-0.7,0-1.3,0.3-1.7,0.8v15.3c0,0.4-0.2,0.8-0.5,1
		c-0.3,0.3-0.7,0.4-1.2,0.4h-5c-0.5,0-0.9-0.1-1.3-0.4C326.4,105,326.2,104.7,326.2,104.3z M338.3,80.7c0.6,0,1.2-0.2,1.8-0.5
		c0.5-0.3,1-0.7,1.3-1.2c0.3-0.5,0.5-1.1,0.5-1.7v-5.7c0-0.6-0.2-1.2-0.5-1.7c-0.3-0.5-0.7-0.9-1.3-1.2c-0.5-0.3-1.1-0.5-1.8-0.5
		h-3.4c-0.2,0-0.4,0.1-0.6,0.3c-0.2,0.2-0.2,0.4-0.2,0.6v10.5c0,0.3,0.1,0.5,0.3,0.7c0.2,0.2,0.5,0.3,0.7,0.3H338.3z"/>
	<path class="st1" d="M356.8,103.9V63.5c0-0.5,0.2-0.9,0.5-1.2c0.3-0.3,0.7-0.5,1.2-0.5h18.4c0.5,0,0.9,0.2,1.2,0.5
		c0.3,0.3,0.5,0.7,0.5,1.2v4.3c0,0.3-0.1,0.6-0.2,0.8c-0.2,0.3-0.4,0.5-0.6,0.6c-0.3,0.1-0.5,0.2-0.8,0.2h-12.6v9.6h9.6
		c0.5,0,0.8,0.1,1.1,0.4c0.3,0.3,0.4,0.7,0.4,1.1V85c0,0.5-0.1,0.8-0.4,1.1c-0.3,0.3-0.7,0.4-1.1,0.4h-9.6V98h12.6
		c0.5,0,0.9,0.2,1.2,0.5c0.3,0.3,0.5,0.7,0.5,1.2v4.3c0,0.3-0.1,0.6-0.2,0.8c-0.2,0.3-0.4,0.5-0.6,0.6c-0.3,0.1-0.5,0.2-0.8,0.2
		h-18.4c-0.5,0-0.9-0.2-1.2-0.5C357,104.8,356.8,104.4,356.8,103.9z"/>
</g>
<g class="st2">
	<path class="st1" d="M64.9,164v-40.3c0-0.4,0.2-0.8,0.5-1.1c0.3-0.3,0.7-0.4,1.2-0.4h18.1c0.3,0,0.6,0.1,0.9,0.2
		c0.3,0.1,0.5,0.3,0.6,0.5c0.2,0.2,0.2,0.5,0.2,0.7v4.4c0,0.3-0.1,0.5-0.2,0.8s-0.4,0.5-0.6,0.6c-0.3,0.2-0.6,0.2-0.9,0.2H72.3v9.6
		h9.4c0.5,0,0.8,0.1,1.1,0.4c0.3,0.3,0.4,0.7,0.4,1.1v4.4c0,0.4-0.1,0.8-0.4,1c-0.3,0.3-0.7,0.4-1.1,0.4h-9.4V164
		c0,0.3-0.1,0.5-0.2,0.8c-0.1,0.2-0.4,0.4-0.6,0.6s-0.5,0.2-0.9,0.2h-4c-0.5,0-0.9-0.1-1.2-0.4C65,164.8,64.9,164.4,64.9,164z"/>
	<path class="st1" d="M92.5,160c-1.1-1.9-1.6-4-1.6-6.1v-20.6c0-1.5,0.2-2.9,0.7-4.2c0.5-1.3,1.2-2.5,2.1-3.6c0.9-1.1,2-2,3.2-2.7
		c1.8-1,3.8-1.6,6-1.6h2.1c1.4,0,2.8,0.2,4.1,0.7c1.3,0.5,2.5,1.2,3.6,2c1.1,0.9,2,1.9,2.7,3.1c1,1.8,1.6,3.8,1.6,6.1l0.1,20.6
		c0,1.4-0.2,2.8-0.7,4.1c-0.5,1.3-1.2,2.5-2.1,3.6c-0.9,1.1-2,2-3.2,2.8c-1.8,1.1-3.8,1.7-5.9,1.7h-2.1c-1.4,0-2.8-0.2-4.1-0.7
		c-1.3-0.5-2.5-1.2-3.6-2.1C94.1,162.4,93.2,161.3,92.5,160z M103.9,158.8c0.9,0,1.7-0.2,2.4-0.7s1.3-1.1,1.8-1.9s0.7-1.6,0.7-2.5
		v-20.4c0-0.9-0.2-1.7-0.7-2.5s-1-1.3-1.8-1.7c-0.8-0.4-1.6-0.6-2.5-0.6h-0.2c-0.9,0-1.7,0.2-2.5,0.6c-0.8,0.4-1.4,1-1.8,1.7
		c-0.4,0.7-0.7,1.5-0.7,2.5v20.4c0,0.9,0.2,1.7,0.7,2.5c0.5,0.8,1.1,1.4,1.8,1.9s1.6,0.7,2.5,0.7H103.9z"/>
	<path class="st1" d="M122.4,164.3v-40.4c0-0.3,0.1-0.6,0.2-0.9c0.2-0.3,0.4-0.5,0.6-0.6s0.6-0.2,0.9-0.2h12.3c1.9,0,3.6,0.4,5,1.2
		s2.6,1.8,3.4,3.1c0.8,1.3,1.2,2.8,1.2,4.5v7.6c0,1-0.2,2-0.6,2.9c-0.4,0.9-0.9,1.8-1.6,2.6c-0.7,0.8-1.5,1.4-2.4,1.9l0.1,0.1
		l6.3,18.4c0,0,0.1,0.2,0.1,0.4c0,0.3-0.1,0.5-0.3,0.7c-0.2,0.2-0.5,0.3-0.9,0.3h-5.4c-0.3,0-0.5-0.1-0.8-0.2
		c-0.3-0.1-0.5-0.3-0.7-0.5c-0.2-0.2-0.4-0.4-0.5-0.7l-5.1-15.6c-0.5-0.3-1-0.4-1.6-0.4c-0.7,0-1.3,0.3-1.7,0.8v15.3
		c0,0.4-0.2,0.8-0.5,1c-0.3,0.3-0.7,0.4-1.2,0.4h-5c-0.5,0-0.9-0.1-1.3-0.4C122.6,165,122.4,164.7,122.4,164.3z M134.6,140.7
		c0.6,0,1.2-0.2,1.8-0.5s1-0.7,1.3-1.2c0.3-0.5,0.5-1.1,0.5-1.7v-5.7c0-0.6-0.2-1.2-0.5-1.7c-0.3-0.5-0.7-0.9-1.3-1.2
		c-0.5-0.3-1.1-0.5-1.8-0.5h-3.4c-0.2,0-0.4,0.1-0.6,0.3c-0.2,0.2-0.2,0.4-0.2,0.6v10.5c0,0.3,0.1,0.5,0.3,0.7
		c0.2,0.2,0.5,0.3,0.7,0.3H134.6z"/>
	<path class="st1" d="M168.2,165.8c-0.5-0.2-1-0.4-1.4-0.6c-0.4-0.2-0.8-0.4-1.2-0.7c-0.4-0.3-1-0.8-1.9-1.5c-2-1.9-2.9-4.2-2.9-6.8
		v-0.1c0-0.3,0.1-0.5,0.3-0.8c0.2-0.3,0.4-0.5,0.7-0.7s0.6-0.3,0.9-0.3h4c0.5,0,0.9,0.2,1.2,0.5s0.5,0.7,0.5,1.2v0.3
		c0,0.5,0.1,0.9,0.3,1.3c0.2,0.4,0.5,0.8,0.9,1.2c0.4,0.3,0.9,0.5,1.4,0.7c0.5,0.1,1,0.2,1.5,0.2h0.2c0.8,0,1.5-0.1,2.1-0.3
		c0.6-0.2,1.1-0.5,1.5-0.8c0.4-0.4,0.5-0.8,0.5-1.3l-0.1-9.1v-25c0-0.3,0.1-0.5,0.2-0.7c0.2-0.2,0.4-0.4,0.6-0.5s0.6-0.2,0.9-0.2
		h3.9c0.3,0,0.5,0.1,0.8,0.2s0.5,0.3,0.6,0.5c0.2,0.2,0.2,0.5,0.2,0.7v32.9c0,3.4-0.8,5.8-2.3,7.2c-1,0.9-2.2,1.7-3.6,2.2
		c-1.4,0.6-2.7,0.9-4,0.9c-1.6,0-2.7,0-3.5-0.1S169,166.1,168.2,165.8z"/>
	<path class="st1" d="M191.9,159.7c-1.1-1.9-1.7-3.9-1.7-6.1l-0.1-28.8c0-0.7,0.1-1.3,0.3-1.7c0.2-0.4,0.5-0.7,0.9-0.9
		c0.4-0.2,0.9-0.2,1.6-0.2h2.3c0.6,0,1.1,0,1.3,0s0.4,0,0.5,0.1c0.1,0.1,0.3,0.2,0.5,0.3c0.2,0.2,0.4,0.4,0.5,0.8s0.1,0.9,0.1,1.5
		l0.1,28.5c0,0.9,0.2,1.8,0.7,2.6c0.4,0.8,1,1.4,1.8,1.9c0.8,0.5,1.6,0.7,2.5,0.7h1c0.9,0,1.7-0.2,2.5-0.7c0.8-0.5,1.4-1.1,1.8-1.9
		s0.7-1.6,0.7-2.6l0.1-28.5c0-0.7,0.1-1.3,0.3-1.7c0.2-0.4,0.5-0.7,0.9-0.8c0.4-0.2,0.9-0.2,1.5-0.2h2.4c0.7,0,1.3,0.1,1.7,0.2
		c0.4,0.2,0.7,0.4,0.9,0.8s0.3,1,0.3,1.8l-0.1,28.8c0,1.5-0.3,2.9-0.8,4.2c-0.5,1.3-1.2,2.6-2.2,3.6c-0.9,1.1-2,2-3.3,2.7
		c-1.9,1.1-3.9,1.7-6.1,1.7h-2.3c-1.5,0-2.9-0.2-4.2-0.7c-1.3-0.5-2.6-1.2-3.7-2.1C193.5,162,192.6,161,191.9,159.7z"/>
	<path class="st1" d="M223.6,162.8c-1-1.1-1.9-2.5-2.4-3.9c-0.6-1.5-0.9-3-0.9-4.6v-0.1c0-0.4,0.1-0.7,0.3-1.1s0.4-0.6,0.7-0.8
		c0.3-0.2,0.6-0.3,1-0.3h4.4c0,0,0.1,0,0.1,0c0,0,0.1,0,0.1,0h0.1c0.4,0.2,0.7,0.4,0.9,0.7c0.3,0.3,0.4,0.7,0.4,1.1v0.6
		c0,0.6,0.1,1.2,0.4,1.8c0.3,0.6,0.6,1.1,1.1,1.5s1,0.7,1.6,0.9c0.4,0.1,0.9,0.2,1.3,0.2h0.2c0.1,0,0.3,0,0.4,0c0.1,0,0.2,0,0.2,0
		h0.1c0.8-0.1,1.4-0.3,2.1-0.7c0.6-0.4,1.1-0.9,1.5-1.5c0.4-0.6,0.5-1.3,0.5-2l0.1-3.1c0-1.1-0.3-2-0.7-2.7
		c-0.4-0.7-1.1-1.3-1.9-1.7c-1-0.6-2.5-0.9-4.6-0.9l-1.2-0.1c-2.4-0.2-4.2-0.9-5.5-2.1c-1.3-1.2-2.1-2.6-2.4-4.2
		c-0.4-1.6-0.6-3.4-0.6-5.3l0.1-2.2l0.1-0.9c0.2-1.4,0.4-2.4,0.6-3.2s0.4-1.4,0.8-2c0.3-0.6,0.8-1.2,1.5-1.8c1-1,2.2-1.7,3.5-2.2
		s2.9-0.7,4.5-0.7h1.9c1.5,0,2.9,0.3,4.2,0.8c1.3,0.6,2.5,1.4,3.6,2.4c1,1,1.8,2.2,2.4,3.6c0.6,1.4,0.8,2.9,0.8,4.4v0.1
		c0,0.3-0.1,0.7-0.2,1s-0.4,0.5-0.7,0.7s-0.6,0.3-0.9,0.3h-4.3c-0.5,0-0.9-0.2-1.2-0.5s-0.5-0.7-0.5-1.2v-0.4c0-0.6-0.1-1.2-0.4-1.7
		s-0.6-1-1.1-1.4s-1-0.7-1.6-0.9c-0.4-0.1-0.8-0.2-1.3-0.2h-0.5c0,0-0.1,0.1-0.3,0.1c-0.8,0.1-1.4,0.3-2,0.7c-0.6,0.4-1,0.8-1.4,1.4
		c-0.3,0.6-0.5,1.2-0.5,2v3.6c0.1,0.8,0.4,1.5,0.8,1.9c0.5,0.5,1.1,0.8,2,1c0.9,0.2,2.1,0.4,3.5,0.4c3.7,0.3,6.5,1.4,8.3,3.4
		s2.7,5,2.7,8.8c0,1.1-0.1,2.1-0.2,3.1c-0.1,1-0.3,2.1-0.7,3.2c-0.4,1.1-0.9,2.1-1.5,3.1c-1.1,1.6-2.5,2.9-4.1,3.8
		c-1.6,0.9-3.4,1.4-5.3,1.4h-1.9c-1.5,0-3-0.3-4.4-0.9C225.9,164.8,224.7,164,223.6,162.8z"/>
	<path class="st1" d="M255,164v-34.9h-5.1c-0.5,0-1-0.1-1.3-0.4c-0.3-0.3-0.5-0.6-0.5-1.1v-4.2c0-0.5,0.2-0.8,0.5-1.1
		c0.3-0.3,0.8-0.4,1.3-0.4h18.3c0.3,0,0.6,0.1,0.9,0.2s0.5,0.3,0.7,0.5c0.2,0.2,0.2,0.5,0.2,0.7v4.2c0,0.3-0.1,0.5-0.2,0.7
		c-0.2,0.2-0.4,0.4-0.7,0.5s-0.6,0.2-0.9,0.2h-5.3V164c0,0.5-0.2,0.9-0.5,1.2c-0.3,0.3-0.7,0.5-1.2,0.5h-4.6c-0.3,0-0.5-0.1-0.8-0.2
		c-0.3-0.2-0.5-0.4-0.6-0.6C255.1,164.6,255,164.3,255,164z"/>
	<path class="st1" d="M287.5,164v-34.9h-5.1c-0.5,0-1-0.1-1.3-0.4s-0.5-0.6-0.5-1.1v-4.2c0-0.5,0.2-0.8,0.5-1.1s0.8-0.4,1.3-0.4
		h18.3c0.3,0,0.6,0.1,0.9,0.2s0.5,0.3,0.7,0.5c0.2,0.2,0.2,0.5,0.2,0.7v4.2c0,0.3-0.1,0.5-0.2,0.7c-0.2,0.2-0.4,0.4-0.7,0.5
		s-0.6,0.2-0.9,0.2h-5.3V164c0,0.5-0.2,0.9-0.5,1.2c-0.3,0.3-0.7,0.5-1.2,0.5h-4.6c-0.3,0-0.5-0.1-0.8-0.2s-0.5-0.4-0.6-0.6
		C287.6,164.6,287.5,164.3,287.5,164z"/>
	<path class="st1" d="M311.8,164.1l-7.4-40.6c0-0.1,0-0.1,0-0.3c0-0.4,0.1-0.7,0.4-0.9c0.3-0.3,0.6-0.4,1-0.4h4.5
		c0.5,0,0.9,0.2,1.2,0.5c0.4,0.3,0.6,0.7,0.7,1.1l4.1,25.1c0,0.1,0.1,0.2,0.1,0.2c0,0,0.1,0,0.2,0s0.2,0,0.2,0s0.1-0.1,0.1-0.2
		l3.4-24.9c0.1-0.3,0.2-0.6,0.4-0.8c0.2-0.3,0.4-0.5,0.7-0.6c0.3-0.1,0.6-0.2,0.8-0.2h4.9c0.3,0,0.5,0.1,0.8,0.2s0.5,0.3,0.7,0.6
		c0.2,0.2,0.3,0.5,0.4,0.8l4.2,25.6c0,0.1,0.1,0.2,0.2,0.2c0.1,0,0.1,0,0.2-0.1c0,0,0.1-0.1,0.1-0.2l3.4-25.4
		c0.1-0.5,0.3-0.9,0.7-1.2c0.4-0.3,0.8-0.5,1.3-0.5h4.5c0.3,0,0.5,0.1,0.8,0.2c0.2,0.1,0.4,0.3,0.6,0.5c0.1,0.2,0.2,0.4,0.2,0.5
		l-6.4,40.4c-0.1,0.6-0.3,1.1-0.7,1.5c-0.4,0.4-0.8,0.6-1.3,0.6h-6.3c-0.5,0-0.9-0.2-1.2-0.5s-0.6-0.7-0.7-1.1l-3.6-20.1l-3.1,19.6
		c-0.1,0.6-0.4,1.1-0.8,1.5s-0.8,0.6-1.3,0.6h-6.2c-0.3,0-0.6-0.1-0.9-0.2s-0.5-0.3-0.7-0.6C311.9,164.7,311.8,164.4,311.8,164.1z"
		/>
	<path class="st1" d="M350.9,160c-1.1-1.9-1.6-4-1.6-6.1v-20.6c0-1.5,0.2-2.9,0.7-4.2c0.5-1.3,1.2-2.5,2.1-3.6c0.9-1.1,2-2,3.2-2.7
		c1.8-1,3.8-1.6,6-1.6h2.1c1.4,0,2.8,0.2,4.1,0.7c1.3,0.5,2.5,1.2,3.6,2c1.1,0.9,2,1.9,2.7,3.1c1,1.8,1.6,3.8,1.6,6.1l0.1,20.6
		c0,1.4-0.2,2.8-0.7,4.1s-1.2,2.5-2.1,3.6c-0.9,1.1-2,2-3.2,2.8c-1.8,1.1-3.8,1.7-5.9,1.7h-2.1c-1.4,0-2.8-0.2-4.1-0.7
		c-1.3-0.5-2.5-1.2-3.6-2.1C352.5,162.4,351.6,161.3,350.9,160z M362.3,158.8c0.9,0,1.7-0.2,2.4-0.7s1.3-1.1,1.8-1.9
		s0.7-1.6,0.7-2.5v-20.4c0-0.9-0.2-1.7-0.7-2.5s-1-1.3-1.8-1.7c-0.8-0.4-1.6-0.6-2.5-0.6h-0.2c-0.9,0-1.7,0.2-2.5,0.6
		c-0.8,0.4-1.4,1-1.8,1.7s-0.7,1.5-0.7,2.5v20.4c0,0.9,0.2,1.7,0.7,2.5s1.1,1.4,1.8,1.9s1.6,0.7,2.5,0.7H362.3z"/>
	<path class="st1" d="M411.7,173.8l-15.4-9.1l-1.9-1.2l-0.4-0.3c-1.4-1.1-2.6-2.5-3.4-4.2c-0.8-1.7-1.2-3.5-1.2-5.4V133
		c0-1.4,0.2-2.8,0.7-4.1s1.2-2.5,2.1-3.6s1.9-1.9,3.2-2.7c0.9-0.5,1.8-0.9,2.8-1.2c1-0.3,2-0.4,3.1-0.4h2.1c1.4,0,2.8,0.2,4.1,0.7
		c1.3,0.5,2.5,1.2,3.5,2c1.1,0.9,2,1.9,2.7,3.1c1.1,1.8,1.6,3.8,1.6,6v20.6c0,1.5-0.2,2.8-0.7,4.2c-0.5,1.3-1.2,2.6-2.1,3.7
		s-2,2-3.1,2.8l5.9,3.6c0.3,0.2,0.6,0.4,0.8,0.7c0.2,0.3,0.3,0.7,0.3,1c0,0.1,0,0.2,0,0.3s-0.1,0.2-0.1,0.3l-2.1,3.5
		c-0.2,0.4-0.6,0.6-1.2,0.6C412.6,174.1,412.2,174,411.7,173.8z M402.2,158.4c0.9,0,1.7-0.2,2.5-0.7c0.7-0.5,1.3-1.1,1.8-1.9
		c0.4-0.8,0.7-1.6,0.7-2.5l-0.1-20.4c0-0.9-0.2-1.7-0.6-2.4c-0.4-0.7-1-1.3-1.8-1.7c-0.7-0.4-1.6-0.6-2.5-0.6H402
		c-0.9,0-1.8,0.2-2.5,0.7c-0.8,0.4-1.4,1-1.8,1.7s-0.7,1.5-0.7,2.4l0.1,20.4c0,0.9,0.2,1.7,0.7,2.5s1.1,1.4,1.8,1.9
		c0.8,0.5,1.6,0.7,2.5,0.7H402.2z"/>
	<path class="st1" d="M423.8,159.7c-1.1-1.9-1.7-3.9-1.7-6.1l-0.1-28.8c0-0.7,0.1-1.3,0.3-1.7c0.2-0.4,0.5-0.7,0.9-0.9
		c0.4-0.2,0.9-0.2,1.6-0.2h2.3c0.6,0,1.1,0,1.3,0s0.4,0,0.5,0.1c0.1,0.1,0.3,0.2,0.5,0.3c0.2,0.2,0.4,0.4,0.5,0.8
		c0.1,0.4,0.2,0.9,0.2,1.5l0.1,28.5c0,0.9,0.2,1.8,0.7,2.6c0.4,0.8,1,1.4,1.8,1.9c0.8,0.5,1.6,0.7,2.5,0.7h1c0.9,0,1.7-0.2,2.5-0.7
		c0.8-0.5,1.4-1.1,1.8-1.9c0.4-0.8,0.7-1.6,0.7-2.6l0.1-28.5c0-0.7,0.1-1.3,0.3-1.7s0.5-0.7,0.9-0.8s0.9-0.2,1.5-0.2h2.4
		c0.7,0,1.3,0.1,1.7,0.2s0.7,0.4,0.9,0.8c0.2,0.4,0.3,1,0.3,1.8l-0.1,28.8c0,1.5-0.3,2.9-0.8,4.2c-0.5,1.3-1.2,2.6-2.2,3.6
		c-0.9,1.1-2,2-3.3,2.7c-1.9,1.1-3.9,1.7-6.1,1.7h-2.3c-1.5,0-2.9-0.2-4.2-0.7c-1.3-0.5-2.6-1.2-3.7-2.1
		C425.4,162,424.5,161,423.8,159.7z"/>
	<path class="st1" d="M455,164.1v-40.4c0-0.5,0.2-0.9,0.5-1.2c0.3-0.3,0.7-0.5,1.2-0.5h4.6c0.3,0,0.5,0.1,0.8,0.2
		c0.2,0.2,0.4,0.4,0.6,0.6c0.1,0.3,0.2,0.5,0.2,0.8v40.4c0,0.3-0.1,0.6-0.2,0.8c-0.1,0.3-0.3,0.5-0.6,0.6c-0.2,0.1-0.5,0.2-0.8,0.2
		h-4.6c-0.5,0-0.9-0.2-1.2-0.5C455.2,165,455,164.6,455,164.1z"/>
	<path class="st1" d="M469.9,164v-39.9c0-0.3,0.1-0.7,0.3-1s0.4-0.6,0.7-0.7c0.3-0.2,0.6-0.3,0.9-0.3h12.6c1.4,0,2.7,0.2,4,0.7
		s2.4,1.1,3.5,2s1.9,1.9,2.6,3c1,1.8,1.5,3.8,1.5,5.9l0.1,20c0,1.4-0.2,2.8-0.7,4.1c-0.5,1.3-1.1,2.5-1.9,3.6c-0.8,1.1-1.8,2-3,2.8
		c-1.8,1.1-3.7,1.7-5.8,1.7h-7c0,0-0.1,0-0.1,0c0,0-0.1,0-0.2,0h-5.8c-0.3,0-0.6-0.1-0.8-0.3c-0.3-0.2-0.5-0.4-0.6-0.7
		C470,164.7,469.9,164.4,469.9,164z M482.8,158.3c0.9,0,1.8-0.2,2.6-0.7c0.8-0.5,1.5-1.1,1.9-1.9c0.5-0.8,0.7-1.7,0.7-2.6V134
		c0-0.8-0.2-1.6-0.6-2.3c-0.4-0.7-1-1.3-1.7-1.7c-0.7-0.4-1.5-0.6-2.3-0.6h-5.3c-0.3,0-0.5,0.1-0.7,0.3c-0.2,0.2-0.3,0.4-0.3,0.6
		v27.6c0,0.2,0,0.3,0.1,0.4c0.1,0.1,0.2,0.1,0.4,0.1H482.8z"/>
</g>
<g class="st2">
	<path class="st1" d="M65.5,194.9v-17.5H63c-0.3,0-0.5-0.1-0.7-0.2s-0.3-0.3-0.3-0.5v-2.1c0-0.2,0.1-0.4,0.3-0.5s0.4-0.2,0.7-0.2
		h9.1c0.2,0,0.3,0,0.5,0.1c0.1,0.1,0.3,0.2,0.3,0.3c0.1,0.1,0.1,0.2,0.1,0.4v2.1c0,0.1,0,0.3-0.1,0.4c-0.1,0.1-0.2,0.2-0.3,0.3
		c-0.1,0.1-0.3,0.1-0.5,0.1h-2.7v17.5c0,0.2-0.1,0.4-0.2,0.6c-0.2,0.2-0.3,0.2-0.6,0.2h-2.3c-0.1,0-0.3,0-0.4-0.1s-0.2-0.2-0.3-0.3
		S65.5,195,65.5,194.9z"/>
	<path class="st1" d="M74.9,194.9v-20.2c0-0.1,0-0.3,0.1-0.4s0.2-0.2,0.3-0.3s0.3-0.1,0.4-0.1H78c0.2,0,0.4,0.1,0.6,0.2
		s0.2,0.3,0.2,0.6v7.7l5.9,0v-7.7c0-0.1,0-0.3,0.1-0.4c0.1-0.1,0.2-0.2,0.3-0.3s0.3-0.1,0.4-0.1h2.3c0.1,0,0.3,0,0.4,0.1
		c0.1,0.1,0.2,0.2,0.3,0.3c0.1,0.1,0.1,0.3,0.1,0.4v20.2c0,0.2,0,0.3-0.1,0.4c-0.1,0.1-0.2,0.2-0.3,0.3c-0.1,0.1-0.3,0.1-0.4,0.1
		h-2.3c-0.2,0-0.3,0-0.4-0.1c-0.1-0.1-0.2-0.2-0.3-0.3c-0.1-0.1-0.1-0.3-0.1-0.4v-8.7l-5.9,0v8.7c0,0.2,0,0.3-0.1,0.4
		c-0.1,0.1-0.2,0.2-0.3,0.3c-0.1,0.1-0.3,0.1-0.4,0.1h-2.3c-0.1,0-0.3,0-0.4-0.1s-0.2-0.2-0.3-0.3S74.9,195,74.9,194.9z"/>
	<path class="st1" d="M90.2,195.1c0-0.1,0-0.1,0-0.1l4.1-20.3c0-0.2,0.2-0.4,0.4-0.6s0.5-0.2,0.7-0.2h3.9c0.2,0,0.3,0,0.5,0.1
		c0.2,0.1,0.3,0.2,0.4,0.3c0.1,0.1,0.2,0.3,0.2,0.4l4.1,20.3c0,0,0,0.1,0,0.2c0,0.2-0.1,0.4-0.2,0.5c-0.1,0.1-0.3,0.2-0.6,0.2h-2.7
		c-0.5,0-0.8-0.2-0.8-0.7l-0.9-5.1h-4l-0.9,5.1c0,0.2-0.1,0.4-0.3,0.5s-0.3,0.2-0.6,0.2H91c-0.2,0-0.4-0.1-0.6-0.2
		S90.2,195.3,90.2,195.1z M98.9,186.3l-1.3-7.8c0-0.1,0-0.1-0.1-0.1c0,0-0.1,0-0.1,0s-0.1,0-0.1,0c0,0,0,0.1-0.1,0.1l-1.3,7.8H98.9z
		"/>
	<path class="st1" d="M108.7,194.9v-17.5h-2.5c-0.3,0-0.5-0.1-0.7-0.2s-0.3-0.3-0.3-0.5v-2.1c0-0.2,0.1-0.4,0.3-0.5s0.4-0.2,0.7-0.2
		h9.1c0.2,0,0.3,0,0.5,0.1c0.1,0.1,0.3,0.2,0.3,0.3c0.1,0.1,0.1,0.2,0.1,0.4v2.1c0,0.1,0,0.3-0.1,0.4c-0.1,0.1-0.2,0.2-0.3,0.3
		c-0.1,0.1-0.3,0.1-0.5,0.1h-2.7v17.5c0,0.2-0.1,0.4-0.2,0.6c-0.2,0.2-0.3,0.2-0.6,0.2h-2.3c-0.1,0-0.3,0-0.4-0.1s-0.2-0.2-0.3-0.3
		S108.7,195,108.7,194.9z"/>
	<path class="st1" d="M117.2,179.7c0-0.1,0-0.2,0.1-0.3l0.6-1.1c0,0,0,0,0,0c0,0,0,0,0-0.1c0-0.1,0-0.1,0-0.1c0,0-0.1-0.1-0.1-0.1
		c-0.2-0.1-0.3-0.2-0.5-0.4s-0.2-0.4-0.2-0.6v-2.2c0-0.2,0-0.4,0.1-0.5c0.1-0.2,0.2-0.3,0.4-0.4s0.3-0.1,0.5-0.1h2.2
		c0.2,0,0.4,0,0.5,0.1c0.2,0.1,0.3,0.2,0.4,0.4c0.1,0.2,0.1,0.3,0.1,0.5v2.2c0,0.3-0.1,0.5-0.3,0.8l-1.6,2.2c0,0-0.1,0.1-0.2,0.1
		c-0.1,0-0.2,0-0.3,0h-1.6c-0.1,0-0.2,0-0.2-0.1C117.3,179.9,117.2,179.8,117.2,179.7z"/>
	<path class="st1" d="M124.4,194.3c-0.5-0.6-0.9-1.2-1.2-2c-0.3-0.7-0.4-1.5-0.4-2.3v0c0-0.2,0-0.4,0.1-0.5c0.1-0.2,0.2-0.3,0.4-0.4
		c0.2-0.1,0.3-0.1,0.5-0.1h2.2c0,0,0,0,0,0c0,0,0,0,0.1,0h0.1c0.2,0.1,0.3,0.2,0.5,0.4s0.2,0.3,0.2,0.5v0.3c0,0.3,0.1,0.6,0.2,0.9
		c0.1,0.3,0.3,0.5,0.5,0.7s0.5,0.3,0.8,0.4c0.2,0.1,0.4,0.1,0.7,0.1h0.1c0.1,0,0.1,0,0.2,0c0.1,0,0.1,0,0.1,0h0c0.4,0,0.7-0.1,1-0.3
		c0.3-0.2,0.6-0.4,0.7-0.8s0.3-0.7,0.3-1l0.1-1.6c0-0.5-0.1-1-0.4-1.4c-0.2-0.4-0.5-0.6-1-0.9c-0.5-0.3-1.3-0.4-2.3-0.5l-0.6-0.1
		c-1.2-0.1-2.1-0.4-2.7-1c-0.6-0.6-1-1.3-1.2-2.1c-0.2-0.8-0.3-1.7-0.3-2.7l0-1.1l0-0.4c0.1-0.7,0.2-1.2,0.3-1.6
		c0.1-0.4,0.2-0.7,0.4-1s0.4-0.6,0.7-0.9c0.5-0.5,1.1-0.9,1.8-1.1s1.4-0.4,2.3-0.3h1c0.7,0,1.4,0.1,2.1,0.4s1.3,0.7,1.8,1.2
		c0.5,0.5,0.9,1.1,1.2,1.8s0.4,1.4,0.4,2.2v0c0,0.2,0,0.3-0.1,0.5c-0.1,0.1-0.2,0.3-0.3,0.3c-0.1,0.1-0.3,0.1-0.5,0.1h-2.2
		c-0.2,0-0.4-0.1-0.6-0.3c-0.2-0.2-0.2-0.4-0.2-0.6v-0.2c0-0.3-0.1-0.6-0.2-0.8c-0.1-0.3-0.3-0.5-0.5-0.7c-0.2-0.2-0.5-0.3-0.8-0.4
		c-0.2-0.1-0.4-0.1-0.6-0.1h-0.3c0,0-0.1,0-0.2,0c-0.4,0-0.7,0.2-1,0.3c-0.3,0.2-0.5,0.4-0.7,0.7c-0.2,0.3-0.2,0.6-0.2,1v1.8
		c0,0.4,0.2,0.7,0.4,1s0.6,0.4,1,0.5c0.4,0.1,1,0.2,1.8,0.2c1.9,0.1,3.2,0.7,4.1,1.7s1.4,2.5,1.4,4.4c0,0.5,0,1.1-0.1,1.6
		s-0.2,1-0.3,1.6c-0.2,0.6-0.4,1.1-0.8,1.6c-0.5,0.8-1.2,1.4-2.1,1.9c-0.8,0.5-1.7,0.7-2.6,0.7h-1c-0.8,0-1.5-0.2-2.2-0.5
		S124.9,194.8,124.4,194.3z"/>
	<path class="st1" d="M142.6,194.9v-20.2c0-0.3,0.1-0.5,0.3-0.6c0.2-0.2,0.4-0.2,0.7-0.2h6.2c0.7,0,1.4,0.1,1.9,0.2
		c0.5,0.2,0.9,0.4,1.3,0.7c0.3,0.3,0.6,0.6,0.9,1c0.3,0.4,0.5,0.9,0.6,1.5c0.2,0.6,0.2,1.3,0.2,2v2.8c0,0.5-0.1,1-0.3,1.5
		s-0.5,0.9-0.8,1.3c-0.4,0.4-0.8,0.7-1.3,1c-0.7,0.4-1.5,0.6-2.4,0.6h-2.3c-0.3,0-0.5,0-0.6,0v8.6c0,0.2-0.1,0.4-0.3,0.6
		c-0.2,0.1-0.4,0.2-0.7,0.2h-2.4c-0.3,0-0.5-0.1-0.7-0.2C142.7,195.3,142.6,195.1,142.6,194.9z M149.1,183c0.3,0,0.6-0.1,0.9-0.2
		c0.3-0.2,0.5-0.4,0.6-0.7c0.2-0.3,0.2-0.6,0.2-0.9v-2.5c0-0.3-0.1-0.6-0.2-0.9c-0.2-0.3-0.4-0.5-0.6-0.6c-0.3-0.2-0.6-0.2-0.9-0.2
		h-1.9c-0.1,0-0.2,0-0.3,0.1c-0.1,0.1-0.2,0.2-0.2,0.3v5.1c0,0.1,0,0.2,0.1,0.3s0.1,0.2,0.2,0.2c0.1,0.1,0.2,0.1,0.3,0.1H149.1z"/>
	<path class="st1" d="M157.2,195v-20.2c0-0.2,0-0.3,0.1-0.4c0.1-0.1,0.2-0.2,0.3-0.3s0.3-0.1,0.4-0.1h6.1c0.9,0,1.8,0.2,2.5,0.6
		c0.7,0.4,1.3,0.9,1.7,1.6c0.4,0.7,0.6,1.4,0.6,2.2v3.8c0,0.5-0.1,1-0.3,1.5s-0.5,0.9-0.8,1.3c-0.3,0.4-0.8,0.7-1.2,1l0,0.1l3.1,9.2
		c0,0,0,0.1,0,0.2c0,0.1-0.1,0.2-0.2,0.3c-0.1,0.1-0.3,0.1-0.4,0.1h-2.7c-0.1,0-0.3,0-0.4-0.1c-0.1-0.1-0.3-0.2-0.4-0.3
		s-0.2-0.2-0.2-0.3l-2.5-7.8c-0.3-0.1-0.5-0.2-0.8-0.2c-0.3,0-0.6,0.1-0.8,0.4v7.6c0,0.2-0.1,0.4-0.2,0.5s-0.4,0.2-0.6,0.2H158
		c-0.3,0-0.5-0.1-0.6-0.2S157.2,195.2,157.2,195z M163.2,183.2c0.3,0,0.6-0.1,0.9-0.2c0.3-0.2,0.5-0.4,0.6-0.6s0.2-0.5,0.2-0.8v-2.8
		c0-0.3-0.1-0.6-0.2-0.9c-0.2-0.3-0.4-0.5-0.6-0.6c-0.3-0.2-0.6-0.2-0.9-0.2h-1.7c-0.1,0-0.2,0-0.3,0.1c-0.1,0.1-0.1,0.2-0.1,0.3
		v5.3c0,0.1,0.1,0.3,0.2,0.4c0.1,0.1,0.2,0.2,0.4,0.2H163.2z"/>
	<path class="st1" d="M172.5,194.8v-20.2c0-0.2,0.1-0.4,0.2-0.6c0.2-0.2,0.4-0.2,0.6-0.2h9.2c0.2,0,0.4,0.1,0.6,0.2s0.2,0.3,0.2,0.6
		v2.2c0,0.2,0,0.3-0.1,0.4c-0.1,0.1-0.2,0.2-0.3,0.3c-0.1,0.1-0.3,0.1-0.4,0.1h-6.3v4.8h4.8c0.2,0,0.4,0.1,0.6,0.2
		c0.1,0.1,0.2,0.3,0.2,0.6v2.2c0,0.2-0.1,0.4-0.2,0.6c-0.1,0.1-0.3,0.2-0.6,0.2h-4.8v5.7h6.3c0.2,0,0.4,0.1,0.6,0.2s0.2,0.3,0.2,0.6
		v2.2c0,0.2,0,0.3-0.1,0.4c-0.1,0.1-0.2,0.2-0.3,0.3c-0.1,0.1-0.3,0.1-0.4,0.1h-9.2c-0.2,0-0.4-0.1-0.6-0.2
		C172.5,195.2,172.5,195,172.5,194.8z"/>
	<path class="st1" d="M188.2,194.9v-17.5h-2.5c-0.3,0-0.5-0.1-0.7-0.2s-0.3-0.3-0.3-0.5v-2.1c0-0.2,0.1-0.4,0.3-0.5s0.4-0.2,0.7-0.2
		h9.1c0.2,0,0.3,0,0.5,0.1c0.1,0.1,0.3,0.2,0.3,0.3c0.1,0.1,0.1,0.2,0.1,0.4v2.1c0,0.1,0,0.3-0.1,0.4c-0.1,0.1-0.2,0.2-0.3,0.3
		c-0.1,0.1-0.3,0.1-0.5,0.1h-2.7v17.5c0,0.2-0.1,0.4-0.2,0.6c-0.2,0.2-0.3,0.2-0.6,0.2H189c-0.1,0-0.3,0-0.4-0.1s-0.2-0.2-0.3-0.3
		S188.2,195,188.2,194.9z"/>
	<path class="st1" d="M199.8,194.9v-17.5h-2.5c-0.3,0-0.5-0.1-0.7-0.2s-0.3-0.3-0.3-0.5v-2.1c0-0.2,0.1-0.4,0.3-0.5s0.4-0.2,0.7-0.2
		h9.1c0.2,0,0.3,0,0.5,0.1c0.1,0.1,0.3,0.2,0.3,0.3c0.1,0.1,0.1,0.2,0.1,0.4v2.1c0,0.1,0,0.3-0.1,0.4c-0.1,0.1-0.2,0.2-0.3,0.3
		c-0.1,0.1-0.3,0.1-0.5,0.1h-2.7v17.5c0,0.2-0.1,0.4-0.2,0.6c-0.2,0.2-0.3,0.2-0.6,0.2h-2.3c-0.1,0-0.3,0-0.4-0.1s-0.2-0.2-0.3-0.3
		S199.8,195,199.8,194.9z"/>
	<path class="st1" d="M212.3,195v-8.9c-0.1-0.5-0.2-1-0.4-1.5l-3.6-9.5c-0.1-0.1-0.1-0.3-0.1-0.4c0-0.2,0-0.3,0.1-0.5
		s0.2-0.3,0.4-0.3c0.2-0.1,0.3-0.1,0.5-0.1h1.9c0.5,0,0.8,0.2,1.1,0.7l2.1,6.2c0,0,0.1,0.1,0.2,0.1c0,0,0.1,0,0.1-0.1l2.2-6.2
		c0.1-0.2,0.2-0.3,0.4-0.5s0.4-0.2,0.6-0.2h2c0.2,0,0.4,0,0.5,0.1c0.2,0.1,0.3,0.2,0.4,0.4c0.1,0.1,0.1,0.3,0.1,0.5c0,0,0,0.1,0,0.2
		s0,0.1,0,0.2l-3.7,9.5c-0.2,0.5-0.3,1-0.4,1.5v8.9c0,0.2,0,0.3-0.1,0.4c-0.1,0.1-0.2,0.2-0.4,0.3s-0.3,0.1-0.5,0.1h-2.3
		c-0.2,0-0.3,0-0.5-0.1c-0.1-0.1-0.3-0.2-0.4-0.3C212.3,195.3,212.3,195.1,212.3,195z"/>
	<path class="st1" d="M227.9,192.9c-0.5-1-0.8-2-0.8-3.1v-10.4c0-0.7,0.1-1.4,0.4-2.1c0.2-0.7,0.6-1.3,1-1.8c0.4-0.5,1-1,1.6-1.3
		c0.9-0.5,1.9-0.8,3-0.8h1c0.7,0,1.3,0.1,1.9,0.3c0.6,0.2,1.2,0.5,1.8,0.8c0.5,0.4,1,0.8,1.4,1.4c0.6,0.8,0.9,1.8,0.9,3
		c0,0.1-0.1,0.3-0.2,0.4s-0.2,0.2-0.4,0.2h-2.7c-0.2,0-0.4,0-0.5-0.1s-0.2-0.2-0.2-0.4c-0.1-0.5-0.2-0.9-0.4-1.2
		c-0.2-0.3-0.5-0.5-0.9-0.6c-0.3-0.1-0.8-0.2-1.3-0.2h-0.1c-0.5,0-0.9,0.1-1.3,0.3c-0.4,0.2-0.7,0.5-0.9,0.9
		c-0.2,0.4-0.3,0.8-0.3,1.2v10.3c0,0.5,0.1,0.9,0.3,1.3c0.2,0.4,0.5,0.7,0.9,0.9c0.4,0.2,0.8,0.4,1.3,0.4h0.1c0.4,0,0.8-0.1,1.2-0.4
		c0.4-0.2,0.7-0.5,0.9-0.9c0.2-0.4,0.3-0.8,0.3-1.3v-1.5h-1.6c-0.2,0-0.3-0.1-0.5-0.2c-0.1-0.1-0.2-0.3-0.2-0.5v-2.3
		c0-0.1,0-0.3,0.1-0.4c0.1-0.1,0.2-0.2,0.3-0.3c0.1-0.1,0.2-0.1,0.4-0.1h4.9c0.1,0,0.3,0,0.4,0.1c0.1,0.1,0.2,0.2,0.3,0.3
		c0.1,0.1,0.1,0.2,0.1,0.4v4.6c0,0.7-0.1,1.5-0.4,2.1c-0.2,0.7-0.6,1.3-1,1.9c-0.4,0.6-1,1-1.6,1.4c-0.9,0.6-1.9,0.8-3,0.8h-1
		c-0.7,0-1.4-0.1-2-0.4c-0.7-0.3-1.3-0.6-1.8-1.1C228.7,194.1,228.3,193.6,227.9,192.9z"/>
	<path class="st1" d="M243.5,192.9c-0.5-1-0.8-2-0.8-3.1v-10.3c0-0.7,0.1-1.4,0.4-2.1c0.2-0.7,0.6-1.3,1-1.8c0.5-0.5,1-1,1.6-1.3
		c0.9-0.5,1.9-0.8,3-0.8h1c0.7,0,1.4,0.1,2.1,0.4c0.7,0.2,1.3,0.6,1.8,1c0.5,0.4,1,1,1.3,1.6c0.5,0.9,0.8,1.9,0.8,3l0,10.3
		c0,0.7-0.1,1.4-0.4,2.1c-0.2,0.7-0.6,1.3-1,1.8s-1,1-1.6,1.4c-0.9,0.6-1.9,0.8-3,0.8h-1c-0.7,0-1.4-0.1-2.1-0.4
		c-0.7-0.2-1.3-0.6-1.8-1.1C244.3,194,243.9,193.5,243.5,192.9z M249.2,192.2c0.4,0,0.8-0.1,1.2-0.4c0.4-0.2,0.7-0.5,0.9-0.9
		s0.3-0.8,0.3-1.3v-10.2c0-0.5-0.1-0.9-0.3-1.2c-0.2-0.4-0.5-0.7-0.9-0.9c-0.4-0.2-0.8-0.3-1.2-0.3h-0.1c-0.5,0-0.9,0.1-1.3,0.3
		c-0.4,0.2-0.7,0.5-0.9,0.9c-0.2,0.4-0.3,0.8-0.3,1.2v10.2c0,0.5,0.1,0.9,0.3,1.3s0.5,0.7,0.9,0.9c0.4,0.2,0.8,0.4,1.3,0.4H249.2z"
		/>
	<path class="st1" d="M259,192.9c-0.5-1-0.8-2-0.8-3.1v-10.3c0-0.7,0.1-1.4,0.4-2.1c0.2-0.7,0.6-1.3,1-1.8c0.5-0.5,1-1,1.6-1.3
		c0.9-0.5,1.9-0.8,3-0.8h1c0.7,0,1.4,0.1,2.1,0.4c0.7,0.2,1.3,0.6,1.8,1c0.5,0.4,1,1,1.3,1.6c0.5,0.9,0.8,1.9,0.8,3l0,10.3
		c0,0.7-0.1,1.4-0.4,2.1c-0.2,0.7-0.6,1.3-1,1.8s-1,1-1.6,1.4c-0.9,0.6-1.9,0.8-3,0.8h-1c-0.7,0-1.4-0.1-2.1-0.4
		c-0.7-0.2-1.3-0.6-1.8-1.1C259.8,194,259.4,193.5,259,192.9z M264.7,192.2c0.4,0,0.8-0.1,1.2-0.4c0.4-0.2,0.7-0.5,0.9-0.9
		s0.3-0.8,0.3-1.3v-10.2c0-0.5-0.1-0.9-0.3-1.2c-0.2-0.4-0.5-0.7-0.9-0.9c-0.4-0.2-0.8-0.3-1.2-0.3h-0.1c-0.5,0-0.9,0.1-1.3,0.3
		c-0.4,0.2-0.7,0.5-0.9,0.9c-0.2,0.4-0.3,0.8-0.3,1.2v10.2c0,0.5,0.1,0.9,0.3,1.3s0.5,0.7,0.9,0.9c0.4,0.2,0.8,0.4,1.3,0.4H264.7z"
		/>
	<path class="st1" d="M273.9,194.9v-20c0-0.2,0-0.3,0.1-0.5c0.1-0.2,0.2-0.3,0.3-0.4c0.1-0.1,0.3-0.1,0.5-0.1h6.3
		c0.7,0,1.4,0.1,2,0.3s1.2,0.6,1.7,1s0.9,0.9,1.3,1.5c0.5,0.9,0.8,1.9,0.8,2.9l0,10c0,0.7-0.1,1.4-0.3,2c-0.2,0.7-0.5,1.3-1,1.8
		c-0.4,0.5-0.9,1-1.5,1.4c-0.9,0.6-1.8,0.8-2.9,0.8h-3.5c0,0,0,0,0,0c0,0,0,0-0.1,0h-2.9c-0.2,0-0.3,0-0.4-0.1
		c-0.1-0.1-0.2-0.2-0.3-0.3C273.9,195.2,273.9,195,273.9,194.9z M280.3,192c0.5,0,0.9-0.1,1.3-0.4c0.4-0.2,0.7-0.6,1-1
		c0.2-0.4,0.4-0.8,0.4-1.3v-9.5c0-0.4-0.1-0.8-0.3-1.2c-0.2-0.4-0.5-0.6-0.9-0.9c-0.4-0.2-0.7-0.3-1.2-0.3H278c-0.1,0-0.2,0-0.3,0.1
		c-0.1,0.1-0.1,0.2-0.1,0.3v13.8c0,0.1,0,0.1,0.1,0.2c0,0,0.1,0.1,0.2,0.1H280.3z"/>
	<path class="st1" d="M288.8,194.6v-2.4c0-0.2,0-0.4,0.2-0.6c0.1-0.2,0.2-0.3,0.4-0.4s0.4-0.1,0.6-0.1h2.4c0.2,0,0.4,0,0.6,0.1
		s0.3,0.2,0.4,0.4c0.1,0.2,0.1,0.4,0.1,0.6v2.4c0,0.2-0.1,0.4-0.2,0.6c-0.1,0.2-0.2,0.3-0.4,0.4c-0.2,0.1-0.4,0.2-0.6,0.2h-2.4
		c-0.2,0-0.4-0.1-0.6-0.2c-0.2-0.1-0.3-0.2-0.4-0.4C288.9,195,288.8,194.8,288.8,194.6z"/>
</g>
</svg>
